<svg width="127" height="127" viewBox="0 0 127 127" fill="none" xmlns="http://www.w3.org/2000/svg">
<g clip-path="url(#clip0_19_143)">
<rect x="0.346453" y="0.442084" width="113.22" height="106.838" rx="7.6" transform="matrix(0.993554 0.113362 -0.127421 0.991849 13.7738 7.27793)" fill="#F4ECBD" stroke="#8F834A" stroke-width="0.8"/>
<path d="M68.083 26.8913L71.3127 7.36284C71.4327 6.86086 73.3576 6.79655 73.8819 6.9404L74.5544 7.12494C75.0787 7.26878 76.4691 7.99418 76.2844 8.4784L68.083 26.8913Z" fill="#D9D9D9"/>
<path d="M81.2561 6.24728C81.2561 9.69749 78.2882 12.4944 74.6272 12.4944C70.9662 12.4944 67.9983 9.69749 67.9983 6.24728C67.9983 2.79707 70.9662 0.00012207 74.6272 0.00012207C78.2882 0.00012207 81.2561 2.79707 81.2561 6.24728Z" fill="#F86464"/>
</g>
<defs>
<clipPath id="clip0_19_143">
<rect width="127" height="127" fill="white"/>
</clipPath>
</defs>
</svg>
