<svg width="116" height="68" viewBox="0 0 116 68" fill="none" xmlns="http://www.w3.org/2000/svg">
<path d="M0.999914 62.6672C0.999914 62.6672 28.9726 46.9018 34.5 49.21C40.0274 51.5181 42.6128 63.9907 49.4673 62.6672C56.3219 61.3436 63.0472 48.8161 68 49.21" stroke="#FFF7FC" stroke-width="2" stroke-linecap="round"/>
<path fill-rule="evenodd" clip-rule="evenodd" d="M107.163 0.543079C107.863 -0.172875 109.007 -0.18216 109.718 0.52234L115.461 6.21162C116.172 6.91612 116.18 8.06882 115.481 8.78478L79.3225 45.7766C79.1459 45.9573 78.9307 46.1018 78.6965 46.1951L69.4756 49.868C68.0197 50.4479 66.5702 49.016 67.1188 47.5397L70.5982 38.1756C70.687 37.9366 70.8248 37.7191 71.0026 37.5372L107.163 0.543079ZM108.451 1.81869L114.193 7.50737L114.193 7.50861L108.15 13.6758L102.452 7.93992L108.451 1.81869ZM100.64 10.3227L72.2903 39.3382L68.8109 48.1768L78.0293 44.5051L78.0307 44.5042L78.0334 44.5022L78.0348 44.5009L106.338 15.5332L100.64 10.3227Z" fill="white"/>
</svg>
