<svg width="585" height="98" viewBox="0 0 585 98" fill="none" xmlns="http://www.w3.org/2000/svg">
<path d="M581.094 23.0938C583.344 23.0938 584.469 24.3229 584.469 26.7812C584.469 27.9062 584.312 29.125 584 30.4375C583.688 31.7292 582.833 34.9479 581.438 40.0938C580.417 43.8229 579.635 47.8958 579.094 52.3125C578.573 56.7083 578.312 60.1458 578.312 62.625C578.312 65.2708 578.51 68.4167 578.906 72.0625C579.01 73.0417 579.062 73.6562 579.062 73.9062C579.062 75.1562 578.604 76.2292 577.688 77.125C576.771 78.0208 575.771 78.4688 574.688 78.4688C573.208 78.4688 572.167 77.7708 571.562 76.375C570.958 74.9792 570.656 72.5833 570.656 69.1875C570.656 61.875 571.51 53.2604 573.219 43.3438C574.948 33.4271 576.354 27.5729 577.438 25.7812C578.542 23.9896 579.76 23.0938 581.094 23.0938Z" fill="#C9D3F5"/>
<path d="M563.125 60.1562C561.729 65.0312 559.073 69.1458 555.156 72.5C551.26 75.8333 547.365 77.5 543.469 77.5C540.385 77.5 537.844 76.375 535.844 74.125C533.844 71.8542 532.844 69.0729 532.844 65.7812C532.844 60.4062 534.677 55.1146 538.344 49.9062C542.01 44.6979 546.458 42.0938 551.688 42.0938C555.25 42.0938 558.135 43.4167 560.344 46.0625C562.552 48.6875 563.656 51.8229 563.656 55.4688C563.656 57.0521 563.479 58.6042 563.125 60.125V60.1562ZM546.875 50.2812C545.417 51.5729 543.99 53.6354 542.594 56.4688C541.198 59.3021 540.5 62.1458 540.5 65C540.5 66.7292 540.812 68.1562 541.438 69.2812C542.083 70.4062 542.927 70.9688 543.969 70.9688C546.552 70.9688 549.24 69.4375 552.031 66.375C554.823 63.3125 556.219 59.875 556.219 56.0625C556.219 53.9167 555.76 52.1562 554.844 50.7812C553.948 49.3854 552.688 48.6875 551.062 48.6875C549.521 48.6875 548.135 49.2188 546.906 50.2812H546.875Z" fill="#C9D3F5"/>
<path d="M527.062 60.1562C525.667 65.0312 523.01 69.1458 519.094 72.5C515.198 75.8333 511.302 77.5 507.406 77.5C504.323 77.5 501.781 76.375 499.781 74.125C497.781 71.8542 496.781 69.0729 496.781 65.7812C496.781 60.4062 498.615 55.1146 502.281 49.9062C505.948 44.6979 510.396 42.0938 515.625 42.0938C519.188 42.0938 522.073 43.4167 524.281 46.0625C526.49 48.6875 527.594 51.8229 527.594 55.4688C527.594 57.0521 527.417 58.6042 527.062 60.125V60.1562ZM510.812 50.2812C509.354 51.5729 507.927 53.6354 506.531 56.4688C505.135 59.3021 504.438 62.1458 504.438 65C504.438 66.7292 504.75 68.1562 505.375 69.2812C506.021 70.4062 506.865 70.9688 507.906 70.9688C510.49 70.9688 513.177 69.4375 515.969 66.375C518.76 63.3125 520.156 59.875 520.156 56.0625C520.156 53.9167 519.698 52.1562 518.781 50.7812C517.885 49.3854 516.625 48.6875 515 48.6875C513.458 48.6875 512.073 49.2188 510.844 50.2812H510.812Z" fill="#C9D3F5"/>
<path d="M483.656 38.9375C483.469 39.1042 483.302 39.5729 483.156 40.3438C483.01 41.1146 482.583 44.6979 481.875 51.0938C481.188 57.4896 480.844 62.6042 480.844 66.4375C480.844 68.0208 481.031 69.7917 481.406 71.75C481.51 72.0417 481.562 72.375 481.562 72.75C481.562 73.875 481.229 74.8854 480.562 75.7812C479.917 76.6771 479.083 77.125 478.062 77.125C477.375 77.125 476.5 76.7812 475.438 76.0938C474.396 75.4271 473.771 74.2812 473.562 72.6562C473.354 71.0312 473.25 68.9167 473.25 66.3125C473.25 62.75 473.667 57.4479 474.5 50.4062C475.333 43.3646 475.833 39.7708 476 39.625C475.417 39.625 473.083 39.7812 469 40.0938C464.896 40.4062 462.51 40.5625 461.844 40.5625C459.698 40.5625 458.208 40.2917 457.375 39.75C456.542 39.1875 456.125 38.3125 456.125 37.125C456.125 36.0625 456.562 35.25 457.438 34.6875C458.333 34.125 460.583 33.8438 464.188 33.8438C470.188 33.8438 476.073 33.4479 481.844 32.6562C488.344 31.6562 493.271 31.1562 496.625 31.1562C500.375 31.1562 502.656 31.6042 503.469 32.5C504.281 33.375 504.688 34.25 504.688 35.125C504.688 37.1458 503.792 38.1562 502 38.1562C501.417 38.1562 500.479 38.0938 499.188 37.9688C497.875 37.8646 496.344 37.8125 494.594 37.8125C489.323 37.8125 485.677 38.1875 483.656 38.9375Z" fill="#C9D3F5"/>
<path d="M428.188 65.25C428.188 67.4167 426.365 70.0104 422.719 73.0312C419.073 76.0312 414.958 77.5312 410.375 77.5312C406.854 77.5312 404.083 76.4271 402.062 74.2188C400.042 71.9896 399.031 68.8958 399.031 64.9375C399.031 59.1042 401.094 53.6354 405.219 48.5312C409.344 43.4271 413.75 40.875 418.438 40.875C420.771 40.875 422.646 41.6146 424.062 43.0938C425.479 44.5729 426.188 46.3333 426.188 48.375C426.188 52 424.448 55.4583 420.969 58.75C417.49 62.0208 413.031 64.2812 407.594 65.5312C406.969 65.6771 406.656 66.0521 406.656 66.6562C406.656 67.6562 407.094 68.6146 407.969 69.5312C408.865 70.4271 410.052 70.875 411.531 70.875C415.719 70.875 419.875 68.7188 424 64.4062C424.792 63.5729 425.562 63.1562 426.312 63.1562C427.562 63.1562 428.188 63.8542 428.188 65.25ZM407.219 59.7188C410.51 59.0521 413.406 57.6458 415.906 55.5C418.427 53.3542 419.688 51.4062 419.688 49.6562C419.688 48.9688 419.49 48.3958 419.094 47.9375C418.719 47.4583 418.229 47.2188 417.625 47.2188C415.812 47.2188 413.802 48.5521 411.594 51.2188C409.385 53.8854 407.927 56.7188 407.219 59.7188Z" fill="#C9D3F5"/>
<path d="M383.094 50.625C382.906 50.625 382.312 52.9479 381.312 57.5938C380.333 62.2396 379.844 65.0521 379.844 66.0312C379.844 67.7396 380.021 68.9375 380.375 69.625C380.75 70.2917 381.354 70.625 382.188 70.625C383.354 70.625 384.469 70.4271 385.531 70.0312C386.615 69.6146 388.031 68.6979 389.781 67.2812C390.865 66.3854 391.781 65.9375 392.531 65.9375C393.135 65.9375 393.615 66.1146 393.969 66.4688C394.344 66.8021 394.531 67.1979 394.531 67.6562C394.531 69.4896 393.052 71.5729 390.094 73.9062C387.135 76.2188 384.01 77.375 380.719 77.375C377.969 77.375 375.865 76.5625 374.406 74.9375C372.969 73.3125 372.25 70.9792 372.25 67.9375C372.25 65.125 373.302 59.5104 375.406 51.0938C374.073 51.2396 373.146 51.3125 372.625 51.3125H371.969C371.01 51.3125 370.031 51 369.031 50.375C368.052 49.75 367.562 48.75 367.562 47.375C367.562 45.625 368.552 44.75 370.531 44.75L377.219 44.5C378.094 41.9792 379.021 38.6771 380 34.5938C380.583 32.0521 381.906 30.7812 383.969 30.7812C385.115 30.7812 386.01 31.1354 386.656 31.8438C387.302 32.5312 387.625 33.3021 387.625 34.1562C387.625 34.4896 386.74 37.7083 384.969 43.8125C391.594 43.2292 395.229 42.9375 395.875 42.9375C396.979 42.9375 397.708 43.1042 398.062 43.4375C398.417 43.75 398.594 44.3646 398.594 45.2812C398.594 47.1354 397.021 48.3125 393.875 48.8125L383.094 50.625Z" fill="#C9D3F5"/>
<path d="M363.812 60.1562C362.417 65.0312 359.76 69.1458 355.844 72.5C351.948 75.8333 348.052 77.5 344.156 77.5C341.073 77.5 338.531 76.375 336.531 74.125C334.531 71.8542 333.531 69.0729 333.531 65.7812C333.531 60.4062 335.365 55.1146 339.031 49.9062C342.698 44.6979 347.146 42.0938 352.375 42.0938C355.938 42.0938 358.823 43.4167 361.031 46.0625C363.24 48.6875 364.344 51.8229 364.344 55.4688C364.344 57.0521 364.167 58.6042 363.812 60.125V60.1562ZM347.562 50.2812C346.104 51.5729 344.677 53.6354 343.281 56.4688C341.885 59.3021 341.188 62.1458 341.188 65C341.188 66.7292 341.5 68.1562 342.125 69.2812C342.771 70.4062 343.615 70.9688 344.656 70.9688C347.24 70.9688 349.927 69.4375 352.719 66.375C355.51 63.3125 356.906 59.875 356.906 56.0625C356.906 53.9167 356.448 52.1562 355.531 50.7812C354.635 49.3854 353.375 48.6875 351.75 48.6875C350.208 48.6875 348.823 49.2188 347.594 50.2812H347.562Z" fill="#C9D3F5"/>
<path d="M285.562 65.7188L287.844 55.1875C289.594 46.8542 290.51 41.0417 290.594 37.75C290.656 36.1667 290.771 35.0938 290.938 34.5312C291.125 33.9479 291.604 33.3958 292.375 32.875C293.167 32.3333 294.062 32.0625 295.062 32.0625C295.708 32.0625 296.448 32.2708 297.281 32.6875C298.115 33.1042 298.812 34.4271 299.375 36.6562C300.25 40.2604 302.51 45.0521 306.156 51.0312C309.802 57.0104 313.083 61.8021 316 65.4062C316.792 61.8229 317.656 57.1667 318.594 51.4375C319.26 47.3542 319.885 43.8125 320.469 40.8125C320.948 38.3125 321.24 36.0938 321.344 34.1562C321.448 32.3229 321.99 31.0938 322.969 30.4688C323.969 29.8438 324.969 29.5312 325.969 29.5312C326.823 29.5312 327.552 30.0104 328.156 30.9688C328.781 31.9062 329.094 33.0833 329.094 34.5C329.094 35.625 328.792 37.2188 328.188 39.2812C326.875 44.0521 325.594 50.2083 324.344 57.75C323.094 65.2917 322.469 69.5938 322.469 70.6562V71.7188C322.469 72.9271 322.365 73.8229 322.156 74.4062C321.948 74.9896 321.438 75.5312 320.625 76.0312C319.833 76.5521 318.792 76.8125 317.5 76.8125C316.729 76.8125 316.167 76.7396 315.812 76.5938C315.479 76.4479 315.021 76.0312 314.438 75.3438C313.854 74.6354 313.24 73.7083 312.594 72.5625C311.594 70.8333 310.854 69.6562 310.375 69.0312C305.396 62.6979 300.604 55.3125 296 46.875C295.375 49.4583 294.417 55.5 293.125 65L292.75 67.8125C292.583 68.7917 292.438 70.2083 292.312 72.0625C292.167 74.2917 291.625 75.8958 290.688 76.875C289.771 77.8542 288.885 78.3438 288.031 78.3438C286.677 78.3438 285.708 77.9896 285.125 77.2812C284.562 76.5938 284.281 75.1979 284.281 73.0938C284.281 71.4271 284.698 69.0312 285.531 65.9062L285.562 65.7188Z" fill="#C9D3F5"/>
<path d="M223.969 73.7812C223.615 75.2396 223.26 77.4479 222.906 80.4062L221.406 92.6875C221.156 94.6875 220.667 96.0729 219.938 96.8438C219.229 97.6146 218.354 98 217.312 98C216.375 98 215.479 97.6458 214.625 96.9375C213.792 96.25 213.375 95.4792 213.375 94.625C213.375 92.9375 213.635 90.9896 214.156 88.7812C217.26 76.3854 218.958 63.5208 219.25 50.1875V49.5625C219.25 46.7708 219.323 44.9167 219.469 44C219.635 43.0625 220.083 42.2396 220.812 41.5312C221.562 40.8229 222.615 40.4688 223.969 40.4688C226.24 40.4688 227.375 42.2083 227.375 45.6875C227.375 47.1042 227.115 49.5104 226.594 52.9062L226.281 55.0625C228.656 51.1042 231.479 47.8229 234.75 45.2188C238.021 42.5938 240.948 41.2812 243.531 41.2812C245.865 41.2812 247.844 42.1146 249.469 43.7812C251.115 45.4479 251.938 47.5417 251.938 50.0625C251.938 56.7917 249.323 62.9167 244.094 68.4375C238.885 73.9375 233.729 76.6875 228.625 76.6875C226.208 76.6875 224.656 75.7188 223.969 73.7812ZM242.312 48.375C239.771 48.375 236.469 50.8542 232.406 55.8125C228.365 60.7708 226.344 64.6667 226.344 67.5C226.344 68.2292 226.698 68.8854 227.406 69.4688C228.135 70.0312 228.979 70.3125 229.938 70.3125C232.583 70.3125 235.615 68.2396 239.031 64.0938C242.469 59.9271 244.188 55.9062 244.188 52.0312C244.188 50.7396 243.99 49.8125 243.594 49.25C243.198 48.6667 242.771 48.375 242.312 48.375Z" fill="#C9D3F5"/>
<path d="M210.188 60.1562C208.792 65.0312 206.135 69.1458 202.219 72.5C198.323 75.8333 194.427 77.5 190.531 77.5C187.448 77.5 184.906 76.375 182.906 74.125C180.906 71.8542 179.906 69.0729 179.906 65.7812C179.906 60.4062 181.74 55.1146 185.406 49.9062C189.073 44.6979 193.521 42.0938 198.75 42.0938C202.312 42.0938 205.198 43.4167 207.406 46.0625C209.615 48.6875 210.719 51.8229 210.719 55.4688C210.719 57.0521 210.542 58.6042 210.188 60.125V60.1562ZM193.938 50.2812C192.479 51.5729 191.052 53.6354 189.656 56.4688C188.26 59.3021 187.562 62.1458 187.562 65C187.562 66.7292 187.875 68.1562 188.5 69.2812C189.146 70.4062 189.99 70.9688 191.031 70.9688C193.615 70.9688 196.302 69.4375 199.094 66.375C201.885 63.3125 203.281 59.875 203.281 56.0625C203.281 53.9167 202.823 52.1562 201.906 50.7812C201.01 49.3854 199.75 48.6875 198.125 48.6875C196.583 48.6875 195.198 49.2188 193.969 50.2812H193.938Z" fill="#C9D3F5"/>
<path d="M173.906 23.0938C176.156 23.0938 177.281 24.3229 177.281 26.7812C177.281 27.9062 177.125 29.125 176.812 30.4375C176.5 31.7292 175.646 34.9479 174.25 40.0938C173.229 43.8229 172.448 47.8958 171.906 52.3125C171.385 56.7083 171.125 60.1458 171.125 62.625C171.125 65.2708 171.323 68.4167 171.719 72.0625C171.823 73.0417 171.875 73.6562 171.875 73.9062C171.875 75.1562 171.417 76.2292 170.5 77.125C169.583 78.0208 168.583 78.4688 167.5 78.4688C166.021 78.4688 164.979 77.7708 164.375 76.375C163.771 74.9792 163.469 72.5833 163.469 69.1875C163.469 61.875 164.323 53.2604 166.031 43.3438C167.76 33.4271 169.167 27.5729 170.25 25.7812C171.354 23.9896 172.573 23.0938 173.906 23.0938Z" fill="#C9D3F5"/>
<path d="M157.25 65.25C157.25 67.4167 155.427 70.0104 151.781 73.0312C148.135 76.0312 144.021 77.5312 139.438 77.5312C135.917 77.5312 133.146 76.4271 131.125 74.2188C129.104 71.9896 128.094 68.8958 128.094 64.9375C128.094 59.1042 130.156 53.6354 134.281 48.5312C138.406 43.4271 142.812 40.875 147.5 40.875C149.833 40.875 151.708 41.6146 153.125 43.0938C154.542 44.5729 155.25 46.3333 155.25 48.375C155.25 52 153.51 55.4583 150.031 58.75C146.552 62.0208 142.094 64.2812 136.656 65.5312C136.031 65.6771 135.719 66.0521 135.719 66.6562C135.719 67.6562 136.156 68.6146 137.031 69.5312C137.927 70.4271 139.115 70.875 140.594 70.875C144.781 70.875 148.938 68.7188 153.062 64.4062C153.854 63.5729 154.625 63.1562 155.375 63.1562C156.625 63.1562 157.25 63.8542 157.25 65.25ZM136.281 59.7188C139.573 59.0521 142.469 57.6458 144.969 55.5C147.49 53.3542 148.75 51.4062 148.75 49.6562C148.75 48.9688 148.552 48.3958 148.156 47.9375C147.781 47.4583 147.292 47.2188 146.688 47.2188C144.875 47.2188 142.865 48.5521 140.656 51.2188C138.448 53.8854 136.99 56.7188 136.281 59.7188Z" fill="#C9D3F5"/>
<path d="M100.219 75.6875C100.24 74.3125 99.4167 71.3542 97.75 66.8125C94.3958 57.8333 92.7188 51.4375 92.7188 47.625C92.7188 44.2083 94.0625 42.5 96.75 42.5C99.375 42.5 100.688 44.0625 100.688 47.1875C100.688 49.1875 100.729 50.6146 100.812 51.4688C100.917 52.3021 101.24 53.8333 101.781 56.0625C102.344 58.2708 102.896 60.1146 103.438 61.5938C103.75 62.4896 104.125 63.6562 104.562 65.0938C104.812 65.9896 105.031 66.6146 105.219 66.9688C105.344 66.7812 105.781 65.9688 106.531 64.5312C106.969 63.6562 108.448 61.1771 110.969 57.0938C113.49 52.9896 115.698 49.7188 117.594 47.2812C119.51 44.8438 120.938 43.3542 121.875 42.8125C122.812 42.2708 123.802 42 124.844 42C125.927 42 126.812 42.3542 127.5 43.0625C128.208 43.7708 128.562 44.6354 128.562 45.6562C128.562 46.8646 127.688 48.0521 125.938 49.2188C124.229 50.3854 121.896 53.0521 118.938 57.2188C116 61.3854 112.833 66.625 109.438 72.9375C107.521 76.5417 105.802 78.3438 104.281 78.3438C102.969 78.3438 101.615 77.4583 100.219 75.6875Z" fill="#C9D3F5"/>
<path d="M89.25 65.25C89.25 67.4167 87.4271 70.0104 83.7812 73.0312C80.1354 76.0312 76.0208 77.5312 71.4375 77.5312C67.9167 77.5312 65.1458 76.4271 63.125 74.2188C61.1042 71.9896 60.0938 68.8958 60.0938 64.9375C60.0938 59.1042 62.1562 53.6354 66.2812 48.5312C70.4062 43.4271 74.8125 40.875 79.5 40.875C81.8333 40.875 83.7083 41.6146 85.125 43.0938C86.5417 44.5729 87.25 46.3333 87.25 48.375C87.25 52 85.5104 55.4583 82.0312 58.75C78.5521 62.0208 74.0938 64.2812 68.6562 65.5312C68.0312 65.6771 67.7188 66.0521 67.7188 66.6562C67.7188 67.6562 68.1562 68.6146 69.0312 69.5312C69.9271 70.4271 71.1146 70.875 72.5938 70.875C76.7812 70.875 80.9375 68.7188 85.0625 64.4062C85.8542 63.5729 86.625 63.1562 87.375 63.1562C88.625 63.1562 89.25 63.8542 89.25 65.25ZM68.2812 59.7188C71.5729 59.0521 74.4688 57.6458 76.9688 55.5C79.4896 53.3542 80.75 51.4062 80.75 49.6562C80.75 48.9688 80.5521 48.3958 80.1562 47.9375C79.7812 47.4583 79.2917 47.2188 78.6875 47.2188C76.875 47.2188 74.8646 48.5521 72.6562 51.2188C70.4479 53.8854 68.9896 56.7188 68.2812 59.7188Z" fill="#C9D3F5"/>
<path d="M13 70.9688C13.2292 69.9479 13.4062 68.1146 13.5312 65.4688C14.0104 58.2188 14.9062 50.6354 16.2188 42.7188C16.5521 41.0521 16.7188 39.7812 16.7188 38.9062C16.7188 38.5312 16.5521 38.3021 16.2188 38.2188C14.0104 37.6562 12.9062 36.6875 12.9062 35.3125C12.9062 34.3125 13.3542 33.375 14.25 32.5C15.1667 31.6042 16.1354 31.1562 17.1562 31.1562L21.375 31.2812C23.2917 31.2812 25.9271 31.1458 29.2812 30.875C32.1354 30.625 34.4583 30.5 36.25 30.5C42.0625 30.5 46.7604 32.1354 50.3438 35.4062C53.9479 38.6562 55.75 42.9688 55.75 48.3438C55.75 54.3438 52.9792 59.7708 47.4375 64.625C41.8958 69.4583 35.1875 72.7604 27.3125 74.5312C25.2292 74.9896 23.7604 75.3854 22.9062 75.7188C22.0521 76.0521 21.0521 76.5833 19.9062 77.3125C18.4896 78.2917 17.0938 78.7812 15.7188 78.7812C14.6562 78.7812 13.7083 78.2708 12.875 77.25C12.0417 76.2292 11.625 75.3958 11.625 74.75C11.625 74.3125 11.8438 73.6771 12.2812 72.8438L13 70.9688ZM21.1562 69.4062C22.2604 69.4062 25.4167 68.6042 30.625 67C35.8542 65.375 40.0938 62.8854 43.3438 59.5312C46.5938 56.1771 48.2188 52.3542 48.2188 48.0625C48.2188 44.625 47.0104 41.8958 44.5938 39.875C42.1979 37.8333 39.0521 36.8125 35.1562 36.8125C32.4896 36.8125 29.2812 37.0625 25.5312 37.5625C25.0521 37.625 24.6667 37.6667 24.375 37.6875C22.1042 51.6042 20.9688 61.4271 20.9688 67.1562C20.9688 68.2188 21.0312 68.9688 21.1562 69.4062Z" fill="#C9D3F5"/>
<path d="M574.094 15.0938C576.344 15.0938 577.469 16.3229 577.469 18.7812C577.469 19.9062 577.312 21.125 577 22.4375C576.688 23.7292 575.833 26.9479 574.438 32.0938C573.417 35.8229 572.635 39.8958 572.094 44.3125C571.573 48.7083 571.312 52.1458 571.312 54.625C571.312 57.2708 571.51 60.4167 571.906 64.0625C572.01 65.0417 572.062 65.6562 572.062 65.9062C572.062 67.1562 571.604 68.2292 570.688 69.125C569.771 70.0208 568.771 70.4688 567.688 70.4688C566.208 70.4688 565.167 69.7708 564.562 68.375C563.958 66.9792 563.656 64.5833 563.656 61.1875C563.656 53.875 564.51 45.2604 566.219 35.3438C567.948 25.4271 569.354 19.5729 570.438 17.7812C571.542 15.9896 572.76 15.0938 574.094 15.0938Z" fill="white"/>
<path d="M556.125 52.1562C554.729 57.0312 552.073 61.1458 548.156 64.5C544.26 67.8333 540.365 69.5 536.469 69.5C533.385 69.5 530.844 68.375 528.844 66.125C526.844 63.8542 525.844 61.0729 525.844 57.7812C525.844 52.4062 527.677 47.1146 531.344 41.9062C535.01 36.6979 539.458 34.0938 544.688 34.0938C548.25 34.0938 551.135 35.4167 553.344 38.0625C555.552 40.6875 556.656 43.8229 556.656 47.4688C556.656 49.0521 556.479 50.6042 556.125 52.125V52.1562ZM539.875 42.2812C538.417 43.5729 536.99 45.6354 535.594 48.4688C534.198 51.3021 533.5 54.1458 533.5 57C533.5 58.7292 533.812 60.1562 534.438 61.2812C535.083 62.4062 535.927 62.9688 536.969 62.9688C539.552 62.9688 542.24 61.4375 545.031 58.375C547.823 55.3125 549.219 51.875 549.219 48.0625C549.219 45.9167 548.76 44.1562 547.844 42.7812C546.948 41.3854 545.688 40.6875 544.062 40.6875C542.521 40.6875 541.135 41.2188 539.906 42.2812H539.875Z" fill="white"/>
<path d="M520.062 52.1562C518.667 57.0312 516.01 61.1458 512.094 64.5C508.198 67.8333 504.302 69.5 500.406 69.5C497.323 69.5 494.781 68.375 492.781 66.125C490.781 63.8542 489.781 61.0729 489.781 57.7812C489.781 52.4062 491.615 47.1146 495.281 41.9062C498.948 36.6979 503.396 34.0938 508.625 34.0938C512.188 34.0938 515.073 35.4167 517.281 38.0625C519.49 40.6875 520.594 43.8229 520.594 47.4688C520.594 49.0521 520.417 50.6042 520.062 52.125V52.1562ZM503.812 42.2812C502.354 43.5729 500.927 45.6354 499.531 48.4688C498.135 51.3021 497.438 54.1458 497.438 57C497.438 58.7292 497.75 60.1562 498.375 61.2812C499.021 62.4062 499.865 62.9688 500.906 62.9688C503.49 62.9688 506.177 61.4375 508.969 58.375C511.76 55.3125 513.156 51.875 513.156 48.0625C513.156 45.9167 512.698 44.1562 511.781 42.7812C510.885 41.3854 509.625 40.6875 508 40.6875C506.458 40.6875 505.073 41.2188 503.844 42.2812H503.812Z" fill="white"/>
<path d="M476.656 30.9375C476.469 31.1042 476.302 31.5729 476.156 32.3438C476.01 33.1146 475.583 36.6979 474.875 43.0938C474.188 49.4896 473.844 54.6042 473.844 58.4375C473.844 60.0208 474.031 61.7917 474.406 63.75C474.51 64.0417 474.562 64.375 474.562 64.75C474.562 65.875 474.229 66.8854 473.562 67.7812C472.917 68.6771 472.083 69.125 471.062 69.125C470.375 69.125 469.5 68.7812 468.438 68.0938C467.396 67.4271 466.771 66.2812 466.562 64.6562C466.354 63.0312 466.25 60.9167 466.25 58.3125C466.25 54.75 466.667 49.4479 467.5 42.4062C468.333 35.3646 468.833 31.7708 469 31.625C468.417 31.625 466.083 31.7812 462 32.0938C457.896 32.4062 455.51 32.5625 454.844 32.5625C452.698 32.5625 451.208 32.2917 450.375 31.75C449.542 31.1875 449.125 30.3125 449.125 29.125C449.125 28.0625 449.562 27.25 450.438 26.6875C451.333 26.125 453.583 25.8438 457.188 25.8438C463.188 25.8438 469.073 25.4479 474.844 24.6562C481.344 23.6562 486.271 23.1562 489.625 23.1562C493.375 23.1562 495.656 23.6042 496.469 24.5C497.281 25.375 497.688 26.25 497.688 27.125C497.688 29.1458 496.792 30.1562 495 30.1562C494.417 30.1562 493.479 30.0938 492.188 29.9688C490.875 29.8646 489.344 29.8125 487.594 29.8125C482.323 29.8125 478.677 30.1875 476.656 30.9375Z" fill="white"/>
<path d="M421.188 57.25C421.188 59.4167 419.365 62.0104 415.719 65.0312C412.073 68.0312 407.958 69.5312 403.375 69.5312C399.854 69.5312 397.083 68.4271 395.062 66.2188C393.042 63.9896 392.031 60.8958 392.031 56.9375C392.031 51.1042 394.094 45.6354 398.219 40.5312C402.344 35.4271 406.75 32.875 411.438 32.875C413.771 32.875 415.646 33.6146 417.062 35.0938C418.479 36.5729 419.188 38.3333 419.188 40.375C419.188 44 417.448 47.4583 413.969 50.75C410.49 54.0208 406.031 56.2812 400.594 57.5312C399.969 57.6771 399.656 58.0521 399.656 58.6562C399.656 59.6562 400.094 60.6146 400.969 61.5312C401.865 62.4271 403.052 62.875 404.531 62.875C408.719 62.875 412.875 60.7188 417 56.4062C417.792 55.5729 418.562 55.1562 419.312 55.1562C420.562 55.1562 421.188 55.8542 421.188 57.25ZM400.219 51.7188C403.51 51.0521 406.406 49.6458 408.906 47.5C411.427 45.3542 412.688 43.4062 412.688 41.6562C412.688 40.9688 412.49 40.3958 412.094 39.9375C411.719 39.4583 411.229 39.2188 410.625 39.2188C408.812 39.2188 406.802 40.5521 404.594 43.2188C402.385 45.8854 400.927 48.7188 400.219 51.7188Z" fill="white"/>
<path d="M376.094 42.625C375.906 42.625 375.312 44.9479 374.312 49.5938C373.333 54.2396 372.844 57.0521 372.844 58.0312C372.844 59.7396 373.021 60.9375 373.375 61.625C373.75 62.2917 374.354 62.625 375.188 62.625C376.354 62.625 377.469 62.4271 378.531 62.0312C379.615 61.6146 381.031 60.6979 382.781 59.2812C383.865 58.3854 384.781 57.9375 385.531 57.9375C386.135 57.9375 386.615 58.1146 386.969 58.4688C387.344 58.8021 387.531 59.1979 387.531 59.6562C387.531 61.4896 386.052 63.5729 383.094 65.9062C380.135 68.2188 377.01 69.375 373.719 69.375C370.969 69.375 368.865 68.5625 367.406 66.9375C365.969 65.3125 365.25 62.9792 365.25 59.9375C365.25 57.125 366.302 51.5104 368.406 43.0938C367.073 43.2396 366.146 43.3125 365.625 43.3125H364.969C364.01 43.3125 363.031 43 362.031 42.375C361.052 41.75 360.562 40.75 360.562 39.375C360.562 37.625 361.552 36.75 363.531 36.75L370.219 36.5C371.094 33.9792 372.021 30.6771 373 26.5938C373.583 24.0521 374.906 22.7812 376.969 22.7812C378.115 22.7812 379.01 23.1354 379.656 23.8438C380.302 24.5312 380.625 25.3021 380.625 26.1562C380.625 26.4896 379.74 29.7083 377.969 35.8125C384.594 35.2292 388.229 34.9375 388.875 34.9375C389.979 34.9375 390.708 35.1042 391.062 35.4375C391.417 35.75 391.594 36.3646 391.594 37.2812C391.594 39.1354 390.021 40.3125 386.875 40.8125L376.094 42.625Z" fill="white"/>
<path d="M356.812 52.1562C355.417 57.0312 352.76 61.1458 348.844 64.5C344.948 67.8333 341.052 69.5 337.156 69.5C334.073 69.5 331.531 68.375 329.531 66.125C327.531 63.8542 326.531 61.0729 326.531 57.7812C326.531 52.4062 328.365 47.1146 332.031 41.9062C335.698 36.6979 340.146 34.0938 345.375 34.0938C348.938 34.0938 351.823 35.4167 354.031 38.0625C356.24 40.6875 357.344 43.8229 357.344 47.4688C357.344 49.0521 357.167 50.6042 356.812 52.125V52.1562ZM340.562 42.2812C339.104 43.5729 337.677 45.6354 336.281 48.4688C334.885 51.3021 334.188 54.1458 334.188 57C334.188 58.7292 334.5 60.1562 335.125 61.2812C335.771 62.4062 336.615 62.9688 337.656 62.9688C340.24 62.9688 342.927 61.4375 345.719 58.375C348.51 55.3125 349.906 51.875 349.906 48.0625C349.906 45.9167 349.448 44.1562 348.531 42.7812C347.635 41.3854 346.375 40.6875 344.75 40.6875C343.208 40.6875 341.823 41.2188 340.594 42.2812H340.562Z" fill="white"/>
<path d="M278.562 57.7188L280.844 47.1875C282.594 38.8542 283.51 33.0417 283.594 29.75C283.656 28.1667 283.771 27.0938 283.938 26.5312C284.125 25.9479 284.604 25.3958 285.375 24.875C286.167 24.3333 287.062 24.0625 288.062 24.0625C288.708 24.0625 289.448 24.2708 290.281 24.6875C291.115 25.1042 291.812 26.4271 292.375 28.6562C293.25 32.2604 295.51 37.0521 299.156 43.0312C302.802 49.0104 306.083 53.8021 309 57.4062C309.792 53.8229 310.656 49.1667 311.594 43.4375C312.26 39.3542 312.885 35.8125 313.469 32.8125C313.948 30.3125 314.24 28.0938 314.344 26.1562C314.448 24.3229 314.99 23.0938 315.969 22.4688C316.969 21.8438 317.969 21.5312 318.969 21.5312C319.823 21.5312 320.552 22.0104 321.156 22.9688C321.781 23.9062 322.094 25.0833 322.094 26.5C322.094 27.625 321.792 29.2188 321.188 31.2812C319.875 36.0521 318.594 42.2083 317.344 49.75C316.094 57.2917 315.469 61.5938 315.469 62.6562V63.7188C315.469 64.9271 315.365 65.8229 315.156 66.4062C314.948 66.9896 314.438 67.5312 313.625 68.0312C312.833 68.5521 311.792 68.8125 310.5 68.8125C309.729 68.8125 309.167 68.7396 308.812 68.5938C308.479 68.4479 308.021 68.0312 307.438 67.3438C306.854 66.6354 306.24 65.7083 305.594 64.5625C304.594 62.8333 303.854 61.6562 303.375 61.0312C298.396 54.6979 293.604 47.3125 289 38.875C288.375 41.4583 287.417 47.5 286.125 57L285.75 59.8125C285.583 60.7917 285.438 62.2083 285.312 64.0625C285.167 66.2917 284.625 67.8958 283.688 68.875C282.771 69.8542 281.885 70.3438 281.031 70.3438C279.677 70.3438 278.708 69.9896 278.125 69.2812C277.562 68.5938 277.281 67.1979 277.281 65.0938C277.281 63.4271 277.698 61.0312 278.531 57.9062L278.562 57.7188Z" fill="white"/>
<path d="M216.969 65.7812C216.615 67.2396 216.26 69.4479 215.906 72.4062L214.406 84.6875C214.156 86.6875 213.667 88.0729 212.938 88.8438C212.229 89.6146 211.354 90 210.312 90C209.375 90 208.479 89.6458 207.625 88.9375C206.792 88.25 206.375 87.4792 206.375 86.625C206.375 84.9375 206.635 82.9896 207.156 80.7812C210.26 68.3854 211.958 55.5208 212.25 42.1875V41.5625C212.25 38.7708 212.323 36.9167 212.469 36C212.635 35.0625 213.083 34.2396 213.812 33.5312C214.562 32.8229 215.615 32.4688 216.969 32.4688C219.24 32.4688 220.375 34.2083 220.375 37.6875C220.375 39.1042 220.115 41.5104 219.594 44.9062L219.281 47.0625C221.656 43.1042 224.479 39.8229 227.75 37.2188C231.021 34.5938 233.948 33.2812 236.531 33.2812C238.865 33.2812 240.844 34.1146 242.469 35.7812C244.115 37.4479 244.938 39.5417 244.938 42.0625C244.938 48.7917 242.323 54.9167 237.094 60.4375C231.885 65.9375 226.729 68.6875 221.625 68.6875C219.208 68.6875 217.656 67.7188 216.969 65.7812ZM235.312 40.375C232.771 40.375 229.469 42.8542 225.406 47.8125C221.365 52.7708 219.344 56.6667 219.344 59.5C219.344 60.2292 219.698 60.8854 220.406 61.4688C221.135 62.0312 221.979 62.3125 222.938 62.3125C225.583 62.3125 228.615 60.2396 232.031 56.0938C235.469 51.9271 237.188 47.9062 237.188 44.0312C237.188 42.7396 236.99 41.8125 236.594 41.25C236.198 40.6667 235.771 40.375 235.312 40.375Z" fill="white"/>
<path d="M203.188 52.1562C201.792 57.0312 199.135 61.1458 195.219 64.5C191.323 67.8333 187.427 69.5 183.531 69.5C180.448 69.5 177.906 68.375 175.906 66.125C173.906 63.8542 172.906 61.0729 172.906 57.7812C172.906 52.4062 174.74 47.1146 178.406 41.9062C182.073 36.6979 186.521 34.0938 191.75 34.0938C195.312 34.0938 198.198 35.4167 200.406 38.0625C202.615 40.6875 203.719 43.8229 203.719 47.4688C203.719 49.0521 203.542 50.6042 203.188 52.125V52.1562ZM186.938 42.2812C185.479 43.5729 184.052 45.6354 182.656 48.4688C181.26 51.3021 180.562 54.1458 180.562 57C180.562 58.7292 180.875 60.1562 181.5 61.2812C182.146 62.4062 182.99 62.9688 184.031 62.9688C186.615 62.9688 189.302 61.4375 192.094 58.375C194.885 55.3125 196.281 51.875 196.281 48.0625C196.281 45.9167 195.823 44.1562 194.906 42.7812C194.01 41.3854 192.75 40.6875 191.125 40.6875C189.583 40.6875 188.198 41.2188 186.969 42.2812H186.938Z" fill="white"/>
<path d="M166.906 15.0938C169.156 15.0938 170.281 16.3229 170.281 18.7812C170.281 19.9062 170.125 21.125 169.812 22.4375C169.5 23.7292 168.646 26.9479 167.25 32.0938C166.229 35.8229 165.448 39.8958 164.906 44.3125C164.385 48.7083 164.125 52.1458 164.125 54.625C164.125 57.2708 164.323 60.4167 164.719 64.0625C164.823 65.0417 164.875 65.6562 164.875 65.9062C164.875 67.1562 164.417 68.2292 163.5 69.125C162.583 70.0208 161.583 70.4688 160.5 70.4688C159.021 70.4688 157.979 69.7708 157.375 68.375C156.771 66.9792 156.469 64.5833 156.469 61.1875C156.469 53.875 157.323 45.2604 159.031 35.3438C160.76 25.4271 162.167 19.5729 163.25 17.7812C164.354 15.9896 165.573 15.0938 166.906 15.0938Z" fill="white"/>
<path d="M150.25 57.25C150.25 59.4167 148.427 62.0104 144.781 65.0312C141.135 68.0312 137.021 69.5312 132.438 69.5312C128.917 69.5312 126.146 68.4271 124.125 66.2188C122.104 63.9896 121.094 60.8958 121.094 56.9375C121.094 51.1042 123.156 45.6354 127.281 40.5312C131.406 35.4271 135.812 32.875 140.5 32.875C142.833 32.875 144.708 33.6146 146.125 35.0938C147.542 36.5729 148.25 38.3333 148.25 40.375C148.25 44 146.51 47.4583 143.031 50.75C139.552 54.0208 135.094 56.2812 129.656 57.5312C129.031 57.6771 128.719 58.0521 128.719 58.6562C128.719 59.6562 129.156 60.6146 130.031 61.5312C130.927 62.4271 132.115 62.875 133.594 62.875C137.781 62.875 141.938 60.7188 146.062 56.4062C146.854 55.5729 147.625 55.1562 148.375 55.1562C149.625 55.1562 150.25 55.8542 150.25 57.25ZM129.281 51.7188C132.573 51.0521 135.469 49.6458 137.969 47.5C140.49 45.3542 141.75 43.4062 141.75 41.6562C141.75 40.9688 141.552 40.3958 141.156 39.9375C140.781 39.4583 140.292 39.2188 139.688 39.2188C137.875 39.2188 135.865 40.5521 133.656 43.2188C131.448 45.8854 129.99 48.7188 129.281 51.7188Z" fill="white"/>
<path d="M93.2188 67.6875C93.2396 66.3125 92.4167 63.3542 90.75 58.8125C87.3958 49.8333 85.7188 43.4375 85.7188 39.625C85.7188 36.2083 87.0625 34.5 89.75 34.5C92.375 34.5 93.6875 36.0625 93.6875 39.1875C93.6875 41.1875 93.7292 42.6146 93.8125 43.4688C93.9167 44.3021 94.2396 45.8333 94.7812 48.0625C95.3438 50.2708 95.8958 52.1146 96.4375 53.5938C96.75 54.4896 97.125 55.6562 97.5625 57.0938C97.8125 57.9896 98.0312 58.6146 98.2188 58.9688C98.3438 58.7812 98.7812 57.9688 99.5312 56.5312C99.9688 55.6562 101.448 53.1771 103.969 49.0938C106.49 44.9896 108.698 41.7188 110.594 39.2812C112.51 36.8438 113.938 35.3542 114.875 34.8125C115.812 34.2708 116.802 34 117.844 34C118.927 34 119.812 34.3542 120.5 35.0625C121.208 35.7708 121.562 36.6354 121.562 37.6562C121.562 38.8646 120.688 40.0521 118.938 41.2188C117.229 42.3854 114.896 45.0521 111.938 49.2188C109 53.3854 105.833 58.625 102.438 64.9375C100.521 68.5417 98.8021 70.3438 97.2812 70.3438C95.9688 70.3438 94.6146 69.4583 93.2188 67.6875Z" fill="white"/>
<path d="M82.25 57.25C82.25 59.4167 80.4271 62.0104 76.7812 65.0312C73.1354 68.0312 69.0208 69.5312 64.4375 69.5312C60.9167 69.5312 58.1458 68.4271 56.125 66.2188C54.1042 63.9896 53.0938 60.8958 53.0938 56.9375C53.0938 51.1042 55.1562 45.6354 59.2812 40.5312C63.4062 35.4271 67.8125 32.875 72.5 32.875C74.8333 32.875 76.7083 33.6146 78.125 35.0938C79.5417 36.5729 80.25 38.3333 80.25 40.375C80.25 44 78.5104 47.4583 75.0312 50.75C71.5521 54.0208 67.0938 56.2812 61.6562 57.5312C61.0312 57.6771 60.7188 58.0521 60.7188 58.6562C60.7188 59.6562 61.1562 60.6146 62.0312 61.5312C62.9271 62.4271 64.1146 62.875 65.5938 62.875C69.7812 62.875 73.9375 60.7188 78.0625 56.4062C78.8542 55.5729 79.625 55.1562 80.375 55.1562C81.625 55.1562 82.25 55.8542 82.25 57.25ZM61.2812 51.7188C64.5729 51.0521 67.4688 49.6458 69.9688 47.5C72.4896 45.3542 73.75 43.4062 73.75 41.6562C73.75 40.9688 73.5521 40.3958 73.1562 39.9375C72.7812 39.4583 72.2917 39.2188 71.6875 39.2188C69.875 39.2188 67.8646 40.5521 65.6562 43.2188C63.4479 45.8854 61.9896 48.7188 61.2812 51.7188Z" fill="white"/>
<path d="M6 62.9688C6.22917 61.9479 6.40625 60.1146 6.53125 57.4688C7.01042 50.2188 7.90625 42.6354 9.21875 34.7188C9.55208 33.0521 9.71875 31.7812 9.71875 30.9062C9.71875 30.5312 9.55208 30.3021 9.21875 30.2188C7.01042 29.6562 5.90625 28.6875 5.90625 27.3125C5.90625 26.3125 6.35417 25.375 7.25 24.5C8.16667 23.6042 9.13542 23.1562 10.1562 23.1562L14.375 23.2812C16.2917 23.2812 18.9271 23.1458 22.2812 22.875C25.1354 22.625 27.4583 22.5 29.25 22.5C35.0625 22.5 39.7604 24.1354 43.3438 27.4062C46.9479 30.6562 48.75 34.9688 48.75 40.3438C48.75 46.3438 45.9792 51.7708 40.4375 56.625C34.8958 61.4583 28.1875 64.7604 20.3125 66.5312C18.2292 66.9896 16.7604 67.3854 15.9062 67.7188C15.0521 68.0521 14.0521 68.5833 12.9062 69.3125C11.4896 70.2917 10.0938 70.7812 8.71875 70.7812C7.65625 70.7812 6.70833 70.2708 5.875 69.25C5.04167 68.2292 4.625 67.3958 4.625 66.75C4.625 66.3125 4.84375 65.6771 5.28125 64.8438L6 62.9688ZM14.1562 61.4062C15.2604 61.4062 18.4167 60.6042 23.625 59C28.8542 57.375 33.0938 54.8854 36.3438 51.5312C39.5938 48.1771 41.2188 44.3542 41.2188 40.0625C41.2188 36.625 40.0104 33.8958 37.5938 31.875C35.1979 29.8333 32.0521 28.8125 28.1562 28.8125C25.4896 28.8125 22.2812 29.0625 18.5312 29.5625C18.0521 29.625 17.6667 29.6667 17.375 29.6875C15.1042 43.6042 13.9688 53.4271 13.9688 59.1562C13.9688 60.2188 14.0312 60.9688 14.1562 61.4062Z" fill="white"/>
<path fill-rule="evenodd" clip-rule="evenodd" d="M580.888 23.3781C580.559 24.7354 579.688 28.015 578.298 33.1409L578.296 33.1499C577.333 36.6652 576.586 40.5433 576.065 44.7934C575.551 49.1286 575.312 52.3813 575.312 54.625C575.312 57.0836 575.497 60.078 575.883 63.6308L575.884 63.6394C575.98 64.5417 576.062 65.3965 576.062 65.9062C576.062 68.2634 575.148 70.3588 573.483 71.9857C571.966 73.4687 570.004 74.4688 567.688 74.4688C566.301 74.4688 564.861 74.1332 563.57 73.2684C562.287 72.4087 561.433 71.2152 560.892 69.9639C559.932 67.7478 559.656 64.6194 559.656 61.1875C559.656 53.5807 560.543 44.7286 562.277 34.6647L562.278 34.6566C563.149 29.6624 563.95 25.6263 564.681 22.5813C565.363 19.7423 566.101 17.2221 567.015 15.7116L567.023 15.6971L567.032 15.6827C568.422 13.4278 570.698 11.0938 574.094 11.0938C575.931 11.0938 578.017 11.6119 579.576 13.315C581.073 14.951 581.469 17.0189 581.469 18.7812C581.469 20.2728 581.262 21.806 580.891 23.364L580.888 23.3781ZM572.094 44.3125C572.635 39.8958 573.417 35.8229 574.438 32.0938C575.833 26.9479 576.688 23.7292 577 22.4375C577.312 21.125 577.469 19.9062 577.469 18.7812C577.469 16.3229 576.344 15.0938 574.094 15.0938C572.76 15.0938 571.542 15.9896 570.438 17.7812C569.354 19.5729 567.948 25.4271 566.219 35.3438C564.51 45.2604 563.656 53.875 563.656 61.1875C563.656 64.5833 563.958 66.9792 564.562 68.375C565.167 69.7708 566.208 70.4688 567.688 70.4688C568.771 70.4688 569.771 70.0208 570.688 69.125C571.604 68.2292 572.062 67.1562 572.062 65.9062C572.062 65.6562 572.01 65.0417 571.906 64.0625C571.51 60.4167 571.312 57.2708 571.312 54.625C571.312 52.1458 571.573 48.7083 572.094 44.3125Z" fill="url(#paint0_linear_374_22)"/>
<path fill-rule="evenodd" clip-rule="evenodd" d="M548.156 64.5C552.073 61.1458 554.729 57.0312 556.125 52.1562V52.125C556.479 50.6042 556.656 49.0521 556.656 47.4688C556.656 43.8229 555.552 40.6875 553.344 38.0625C551.135 35.4167 548.25 34.0938 544.688 34.0938C539.458 34.0938 535.01 36.6979 531.344 41.9062C527.677 47.1146 525.844 52.4062 525.844 57.7812C525.844 61.0729 526.844 63.8542 528.844 66.125C530.844 68.375 533.385 69.5 536.469 69.5C540.365 69.5 544.26 67.8333 548.156 64.5ZM547.844 42.7812C546.948 41.3854 545.688 40.6875 544.062 40.6875C542.521 40.6875 541.135 41.2188 539.906 42.2812H539.875C538.417 43.5729 536.99 45.6354 535.594 48.4688C534.198 51.3021 533.5 54.1458 533.5 57C533.5 58.7292 533.812 60.1562 534.438 61.2812C535.083 62.4062 535.927 62.9688 536.969 62.9688C539.552 62.9688 542.24 61.4375 545.031 58.375C547.823 55.3125 549.219 51.875 549.219 48.0625C549.219 45.9167 548.76 44.1562 547.844 42.7812ZM537.734 58.8593C538.722 58.5936 540.166 57.7751 542.075 55.6803C544.259 53.2849 545.219 50.7877 545.219 48.0625C545.219 46.4732 544.881 45.5476 544.516 45L544.496 44.9711L544.477 44.9417C544.402 44.8243 544.345 44.7625 544.317 44.7349C544.303 44.7217 544.294 44.7144 544.29 44.7111C544.287 44.71 544.281 44.7083 544.273 44.7062C544.247 44.7001 544.182 44.6875 544.062 44.6875C543.536 44.6875 543.067 44.8362 542.522 45.3074L542.211 45.5764C541.362 46.438 540.327 47.9121 539.182 50.2365C538.028 52.5793 537.5 54.8218 537.5 57C537.5 57.8523 537.604 58.4493 537.734 58.8593ZM556.411 35.4955C553.414 31.9069 549.388 30.0938 544.688 30.0938C537.866 30.0938 532.304 33.5938 528.073 39.6036C524.022 45.3582 521.844 51.4383 521.844 57.7812C521.844 61.9539 523.14 65.701 525.842 68.7688L525.848 68.7756L525.854 68.7825C528.634 71.9098 532.274 73.5 536.469 73.5C541.585 73.5 546.369 71.2938 550.757 67.5393L550.758 67.5382C555.259 63.6833 558.355 58.8993 559.97 53.2573L560.125 52.7176V52.5637C560.48 50.8919 560.656 49.192 560.656 47.4688C560.656 42.9483 559.262 38.8873 556.411 35.4955Z" fill="url(#paint1_linear_374_22)"/>
<path fill-rule="evenodd" clip-rule="evenodd" d="M512.094 64.5C516.01 61.1458 518.667 57.0312 520.062 52.1562V52.125C520.417 50.6042 520.594 49.0521 520.594 47.4688C520.594 43.8229 519.49 40.6875 517.281 38.0625C515.073 35.4167 512.188 34.0938 508.625 34.0938C503.396 34.0938 498.948 36.6979 495.281 41.9062C491.615 47.1146 489.781 52.4062 489.781 57.7812C489.781 61.0729 490.781 63.8542 492.781 66.125C494.781 68.375 497.323 69.5 500.406 69.5C504.302 69.5 508.198 67.8333 512.094 64.5ZM511.781 42.7812C510.885 41.3854 509.625 40.6875 508 40.6875C506.458 40.6875 505.073 41.2188 503.844 42.2812H503.812C502.354 43.5729 500.927 45.6354 499.531 48.4688C498.135 51.3021 497.438 54.1458 497.438 57C497.438 58.7292 497.75 60.1562 498.375 61.2812C499.021 62.4062 499.865 62.9688 500.906 62.9688C503.49 62.9688 506.177 61.4375 508.969 58.375C511.76 55.3125 513.156 51.875 513.156 48.0625C513.156 45.9167 512.698 44.1562 511.781 42.7812ZM501.671 58.8593C502.66 58.5936 504.103 57.7751 506.013 55.6803C508.196 53.2849 509.156 50.7877 509.156 48.0625C509.156 46.4732 508.818 45.5476 508.453 45L508.434 44.9711L508.415 44.9417C508.34 44.8243 508.283 44.7625 508.254 44.7349C508.241 44.7217 508.232 44.7144 508.227 44.7111C508.224 44.71 508.219 44.7083 508.21 44.7062C508.185 44.7001 508.119 44.6875 508 44.6875C507.474 44.6875 507.005 44.8362 506.46 45.3074L506.148 45.5763C505.299 46.4379 504.265 47.912 503.119 50.2365C501.965 52.5793 501.438 54.8218 501.438 57C501.438 57.8523 501.542 58.4493 501.671 58.8593ZM520.349 35.4955C517.352 31.9069 513.326 30.0938 508.625 30.0938C501.803 30.0938 496.241 33.5938 492.01 39.6036C487.959 45.3582 485.781 51.4383 485.781 57.7812C485.781 61.9539 487.078 65.701 489.779 68.7688L489.786 68.7756L489.792 68.7825C492.571 71.9098 496.212 73.5 500.406 73.5C505.522 73.5 510.306 71.2938 514.694 67.5393L514.696 67.5382C519.197 63.6833 522.293 58.8993 523.908 53.2573L524.062 52.7176V52.5637C524.417 50.8919 524.594 49.192 524.594 47.4688C524.594 42.9483 523.199 38.8873 520.349 35.4955Z" fill="url(#paint2_linear_374_22)"/>
<path fill-rule="evenodd" clip-rule="evenodd" d="M476.156 32.3438C476.302 31.5729 476.469 31.1042 476.656 30.9375C478.677 30.1875 482.323 29.8125 487.594 29.8125C489.344 29.8125 490.875 29.8646 492.188 29.9688C493.479 30.0938 494.417 30.1562 495 30.1562C496.792 30.1562 497.688 29.1458 497.688 27.125C497.688 26.25 497.281 25.375 496.469 24.5C495.656 23.6042 493.375 23.1562 489.625 23.1562C486.271 23.1562 481.344 23.6562 474.844 24.6562C469.073 25.4479 463.188 25.8438 457.188 25.8438C453.583 25.8438 451.333 26.125 450.438 26.6875C449.562 27.25 449.125 28.0625 449.125 29.125C449.125 30.3125 449.542 31.1875 450.375 31.75C451.208 32.2917 452.698 32.5625 454.844 32.5625C455.51 32.5625 457.896 32.4062 462 32.0938C463.066 32.0122 464.012 31.9413 464.839 31.881C467.182 31.7103 468.569 31.625 469 31.625C468.899 31.713 468.678 33.0563 468.334 35.6548C468.109 37.3629 467.831 39.6134 467.5 42.4062C466.667 49.4479 466.25 54.75 466.25 58.3125C466.25 60.9167 466.354 63.0312 466.562 64.6562C466.771 66.2812 467.396 67.4271 468.438 68.0938C469.5 68.7812 470.375 69.125 471.062 69.125C472.083 69.125 472.917 68.6771 473.562 67.7812C474.229 66.8854 474.562 65.875 474.562 64.75C474.562 64.375 474.51 64.0417 474.406 63.75C474.031 61.7917 473.844 60.0208 473.844 58.4375C473.844 54.6042 474.188 49.4896 474.875 43.0938C475.583 36.6979 476.01 33.1146 476.156 32.3438ZM478.852 43.5254C478.171 49.8584 477.844 54.8111 477.844 58.4375C477.844 59.6599 477.983 61.1003 478.293 62.7764C478.489 63.4543 478.562 64.1244 478.562 64.75C478.562 66.7181 477.962 68.5583 476.79 70.1442C475.464 71.9695 473.477 73.125 471.062 73.125C469.195 73.125 467.515 72.2602 466.272 71.4571C463.939 69.9595 462.901 67.5548 462.595 65.1649C462.356 63.303 462.25 61.0002 462.25 58.3125C462.25 54.5059 462.69 49.0131 463.528 41.9362C463.81 39.5518 464.055 37.5494 464.264 35.9342C463.665 35.9787 463.012 36.028 462.305 36.0821L462.304 36.0822C458.297 36.3873 455.705 36.5625 454.844 36.5625C452.636 36.5625 450.089 36.335 448.195 35.1038L448.166 35.0848L448.137 35.0654C445.99 33.6164 445.125 31.3644 445.125 29.125C445.125 26.7368 446.225 24.6402 448.274 23.3228L448.292 23.3113L448.31 23.2999C449.557 22.517 451.111 22.2343 452.301 22.0856C453.657 21.9161 455.304 21.8438 457.188 21.8438C463 21.8438 468.693 21.461 474.268 20.6977C480.802 19.6935 485.962 19.1562 489.625 19.1562C491.622 19.1562 493.419 19.2725 494.919 19.5671C496.234 19.8254 498.099 20.3571 499.413 21.7926C500.653 23.1326 501.688 24.9286 501.688 27.125C501.688 28.6414 501.362 30.5258 500.009 32.0521C498.574 33.6701 496.646 34.1562 495 34.1562C494.216 34.1562 493.126 34.0778 491.838 33.9536C490.665 33.8617 489.255 33.8125 487.594 33.8125C484.076 33.8125 481.577 33.9906 479.924 34.249C479.862 34.7334 479.787 35.3435 479.698 36.0828C479.487 37.8565 479.205 40.3356 478.852 43.5254Z" fill="url(#paint3_linear_374_22)"/>
<path fill-rule="evenodd" clip-rule="evenodd" d="M415.719 65.0312C419.365 62.0104 421.188 59.4167 421.188 57.25C421.188 55.8542 420.562 55.1562 419.312 55.1562C418.562 55.1562 417.792 55.5729 417 56.4062C412.875 60.7188 408.719 62.875 404.531 62.875C403.052 62.875 401.865 62.4271 400.969 61.5312C400.094 60.6146 399.656 59.6562 399.656 58.6562C399.656 58.0521 399.969 57.6771 400.594 57.5312C406.031 56.2812 410.49 54.0208 413.969 50.75C417.448 47.4583 419.188 44 419.188 40.375C419.188 38.3333 418.479 36.5729 417.062 35.0938C415.646 33.6146 413.771 32.875 411.438 32.875C406.75 32.875 402.344 35.4271 398.219 40.5312C394.094 45.6354 392.031 51.1042 392.031 56.9375C392.031 60.8958 393.042 63.9896 395.062 66.2188C397.083 68.4271 399.854 69.5312 403.375 69.5312C407.958 69.5312 412.073 68.0312 415.719 65.0312ZM412.094 39.9375C411.719 39.4583 411.229 39.2188 410.625 39.2188C408.812 39.2188 406.802 40.5521 404.594 43.2188C403.566 44.4601 402.7 45.7375 401.997 47.0511C401.19 48.5594 400.597 50.1152 400.219 51.7188C401.9 51.3783 403.478 50.8449 404.952 50.1186C406.365 49.4228 407.683 48.5499 408.906 47.5C411.427 45.3542 412.688 43.4062 412.688 41.6562C412.688 40.9688 412.49 40.3958 412.094 39.9375ZM419.045 51.162C419.134 51.1582 419.223 51.1562 419.312 51.1562C420.675 51.1562 422.396 51.5569 423.699 53.0112C424.926 54.3815 425.188 56.0377 425.188 57.25C425.188 59.4575 424.269 61.4471 423.093 63.1203C421.903 64.8132 420.247 66.474 418.271 68.1113L418.26 68.12C413.922 71.6898 408.915 73.5312 403.375 73.5312C398.948 73.5312 395.025 72.1025 392.112 68.9191L392.105 68.9122L392.099 68.9053C389.223 65.7331 388.031 61.5684 388.031 56.9375C388.031 50.0749 390.484 43.7387 395.108 38.017C399.673 32.3683 405.112 28.875 411.438 28.875C414.695 28.875 417.672 29.9475 419.951 32.327C422.079 34.5481 423.188 37.2987 423.188 40.375C423.188 44.3535 421.658 47.9563 419.045 51.162Z" fill="url(#paint4_linear_374_22)"/>
<path fill-rule="evenodd" clip-rule="evenodd" d="M374.312 49.5938C375.312 44.9479 375.906 42.625 376.094 42.625L386.875 40.8125C390.021 40.3125 391.594 39.1354 391.594 37.2812C391.594 36.3646 391.417 35.75 391.062 35.4375C390.708 35.1042 389.979 34.9375 388.875 34.9375C388.385 34.9375 386.173 35.1054 382.24 35.4413C380.99 35.5481 379.566 35.6718 377.969 35.8125C378.422 34.2504 378.817 32.8773 379.154 31.6931C380.135 28.2499 380.625 26.4043 380.625 26.1562C380.625 25.3021 380.302 24.5312 379.656 23.8438C379.01 23.1354 378.115 22.7812 376.969 22.7812C374.906 22.7812 373.583 24.0521 373 26.5938C372.021 30.6771 371.094 33.9792 370.219 36.5L363.531 36.75C361.552 36.75 360.562 37.625 360.562 39.375C360.562 40.75 361.052 41.75 362.031 42.375C362.781 42.8436 363.519 43.1365 364.245 43.2538C364.488 43.2929 364.729 43.3125 364.969 43.3125H365.625C366.146 43.3125 367.073 43.2396 368.406 43.0938C368.042 44.551 367.709 45.9243 367.408 47.2135C365.969 53.3706 365.25 57.612 365.25 59.9375C365.25 62.9792 365.969 65.3125 367.406 66.9375C368.865 68.5625 370.969 69.375 373.719 69.375C377.01 69.375 380.135 68.2188 383.094 65.9062C386.052 63.5729 387.531 61.4896 387.531 59.6562C387.531 59.1979 387.344 58.8021 386.969 58.4688C386.615 58.1146 386.135 57.9375 385.531 57.9375C384.781 57.9375 383.865 58.3854 382.781 59.2812C381.031 60.6979 379.615 61.6146 378.531 62.0312C377.469 62.4271 376.354 62.625 375.188 62.625C374.354 62.625 373.75 62.2917 373.375 61.625C373.021 60.9375 372.844 59.7396 372.844 58.0312C372.844 57.0521 373.333 54.2396 374.312 49.5938ZM378.225 50.4279C377.74 52.7261 377.385 54.5358 377.152 55.8735C377.035 56.544 376.954 57.0702 376.903 57.4654C376.856 57.8271 376.846 57.9936 376.844 58.0266C376.844 58.033 376.844 58.0344 376.844 58.0312C376.844 58.1538 376.845 58.2703 376.847 58.3811C376.936 58.3534 377.025 58.3234 377.112 58.2912C377.597 58.1002 378.608 57.5121 380.249 56.1851C381.501 55.1519 383.337 53.9375 385.531 53.9375C386.93 53.9375 388.472 54.3656 389.712 55.5573C390.803 56.5649 391.531 57.9831 391.531 59.6562C391.531 61.6718 390.72 63.4499 389.683 64.9094C388.645 66.3716 387.222 67.7448 385.571 69.0469L385.564 69.0523L385.557 69.0577C381.999 71.8388 378.027 73.375 373.719 73.375C370.149 73.375 366.834 72.2892 364.429 69.6091L364.42 69.5985L364.41 69.5878C362.107 66.9838 361.25 63.5645 361.25 59.9375C361.25 57.2715 361.989 52.9307 363.316 47.1507C362.089 46.9099 360.948 46.415 359.911 45.767L359.895 45.7569L359.879 45.7467C357.523 44.2426 356.562 41.8238 356.562 39.375C356.562 37.747 357.045 35.8329 358.655 34.4097C360.143 33.0944 361.969 32.7622 363.448 32.7503L367.268 32.6075C367.848 30.6738 368.461 28.3684 369.106 25.6784C369.503 23.961 370.251 22.2017 371.659 20.8497C373.16 19.4076 375.044 18.7812 376.969 18.7812C378.991 18.7812 381.041 19.4411 382.589 21.124C383.843 22.4664 384.625 24.184 384.625 26.1562C384.625 26.6613 384.519 27.144 384.5 27.2278L384.498 27.2381C384.456 27.4408 384.401 27.6726 384.34 27.9147C384.218 28.4056 384.042 29.0663 383.818 29.8812C383.699 30.3134 383.565 30.7955 383.415 31.3273C386.439 31.0741 388.303 30.9375 388.875 30.9375C389.599 30.9375 390.382 30.9895 391.141 31.1631C391.844 31.3237 392.865 31.6634 393.755 32.4794C395.453 34.0144 395.594 36.1957 395.594 37.2812C395.594 39.5539 394.536 41.4659 392.811 42.7572C391.282 43.9009 389.375 44.4636 387.522 44.7599C387.515 44.7609 387.509 44.7619 387.503 44.7629L379.184 46.1616C378.931 47.2122 378.612 48.6291 378.225 50.4279ZM376.73 46.5742L376.778 46.5661C376.762 46.5689 376.746 46.5715 376.73 46.5742Z" fill="url(#paint5_linear_374_22)"/>
<path fill-rule="evenodd" clip-rule="evenodd" d="M348.844 64.5C352.76 61.1458 355.417 57.0312 356.812 52.1562V52.125C357.167 50.6042 357.344 49.0521 357.344 47.4688C357.344 43.8229 356.24 40.6875 354.031 38.0625C351.823 35.4167 348.938 34.0938 345.375 34.0938C340.146 34.0938 335.698 36.6979 332.031 41.9062C328.365 47.1146 326.531 52.4062 326.531 57.7812C326.531 61.0729 327.531 63.8542 329.531 66.125C331.531 68.375 334.073 69.5 337.156 69.5C341.052 69.5 344.948 67.8333 348.844 64.5ZM348.531 42.7812C347.635 41.3854 346.375 40.6875 344.75 40.6875C343.208 40.6875 341.823 41.2188 340.594 42.2812H340.562C339.104 43.5729 337.677 45.6354 336.281 48.4688C334.885 51.3021 334.188 54.1458 334.188 57C334.188 58.7292 334.5 60.1562 335.125 61.2812C335.771 62.4062 336.615 62.9688 337.656 62.9688C340.24 62.9688 342.927 61.4375 345.719 58.375C348.51 55.3125 349.906 51.875 349.906 48.0625C349.906 45.9167 349.448 44.1562 348.531 42.7812ZM338.421 58.8593C339.41 58.5936 340.853 57.7751 342.763 55.6803C344.946 53.2849 345.906 50.7877 345.906 48.0625C345.906 46.4732 345.568 45.5476 345.203 45L345.184 44.9711L345.165 44.9417C345.09 44.8243 345.033 44.7625 345.004 44.7349C344.991 44.7217 344.982 44.7144 344.977 44.7111C344.974 44.71 344.969 44.7083 344.96 44.7062C344.935 44.7001 344.869 44.6875 344.75 44.6875C344.224 44.6875 343.755 44.8362 343.21 45.3074L342.898 45.5763C342.049 46.4379 341.015 47.912 339.869 50.2365C338.715 52.5793 338.188 54.8218 338.188 57C338.188 57.8523 338.292 58.4493 338.421 58.8593ZM357.094 35.4896C354.097 31.9049 350.073 30.0938 345.375 30.0938C338.553 30.0938 332.991 33.5938 328.76 39.6036C324.709 45.3582 322.531 51.4383 322.531 57.7812C322.531 61.9539 323.828 65.701 326.529 68.7688L326.536 68.7756L326.542 68.7825C329.321 71.9098 332.962 73.5 337.156 73.5C342.272 73.5 347.056 71.2938 351.444 67.5393L351.446 67.5382C355.947 63.6833 359.043 58.8993 360.658 53.2573L360.812 52.7176V52.5637C361.167 50.8919 361.344 49.192 361.344 47.4688C361.344 42.9457 359.948 38.8826 357.094 35.4896Z" fill="url(#paint6_linear_374_22)"/>
<path fill-rule="evenodd" clip-rule="evenodd" d="M280.844 47.1875L278.562 57.7188L278.531 57.9062C277.698 61.0312 277.281 63.4271 277.281 65.0938C277.281 67.1979 277.562 68.5938 278.125 69.2812C278.708 69.9896 279.677 70.3438 281.031 70.3438C281.885 70.3438 282.771 69.8542 283.688 68.875C284.625 67.8958 285.167 66.2917 285.312 64.0625C285.438 62.2083 285.583 60.7917 285.75 59.8125L286.125 57C286.794 52.0803 287.373 48.0881 287.864 45.0233C288.32 42.1699 288.699 40.1205 289 38.875C290.005 40.7171 291.019 42.509 292.042 44.2507C295.705 50.4871 299.483 56.0806 303.375 61.0312C303.854 61.6562 304.594 62.8333 305.594 64.5625C306.24 65.7083 306.854 66.6354 307.438 67.3438C308.021 68.0312 308.479 68.4479 308.812 68.5938C309.167 68.7396 309.729 68.8125 310.5 68.8125C311.792 68.8125 312.833 68.5521 313.625 68.0312C314.438 67.5312 314.948 66.9896 315.156 66.4062C315.365 65.8229 315.469 64.9271 315.469 63.7188V62.6562C315.469 61.5938 316.094 57.2917 317.344 49.75C318.594 42.2083 319.875 36.0521 321.188 31.2812C321.792 29.2188 322.094 27.625 322.094 26.5C322.094 25.0833 321.781 23.9062 321.156 22.9688C320.552 22.0104 319.823 21.5312 318.969 21.5312C317.969 21.5312 316.969 21.8438 315.969 22.4688C314.99 23.0938 314.448 24.3229 314.344 26.1562C314.24 28.0938 313.948 30.3125 313.469 32.8125C312.885 35.8125 312.26 39.3542 311.594 43.4375C311.057 46.7202 310.543 49.6507 310.054 52.229C309.689 54.1504 309.338 55.8761 309 57.4062C307.977 56.1421 306.909 54.7318 305.796 53.1754C303.737 50.2946 301.523 46.9132 299.156 43.0312C295.51 37.0521 293.25 32.2604 292.375 28.6562C291.812 26.4271 291.115 25.1042 290.281 24.6875C289.448 24.2708 288.708 24.0625 288.062 24.0625C287.062 24.0625 286.167 24.3333 285.375 24.875C284.604 25.3958 284.125 25.9479 283.938 26.5312C283.771 27.0938 283.656 28.1667 283.594 29.75C283.51 33.0417 282.594 38.8542 280.844 47.1875ZM276.929 46.3654L274.633 56.9661L274.617 57.0612M274.617 57.0629C273.79 60.1936 273.281 62.9329 273.281 65.0938C273.281 66.2982 273.36 67.4595 273.571 68.5088C273.771 69.5011 274.158 70.7495 275.029 71.8142L275.037 71.8241C276.687 73.8268 279.066 74.3438 281.031 74.3438C283.478 74.3438 285.343 72.9551 286.593 71.6242C288.472 69.6495 289.133 66.9256 289.303 64.3316C289.426 62.5178 289.561 61.261 289.693 60.4837L289.705 60.4126L290.089 57.5389C290.089 57.538 290.089 57.5371 290.089 57.5362C290.452 54.8694 290.785 52.4938 291.091 50.4036C294.048 55.1438 297.088 59.5045 300.212 63.4806C300.518 63.8827 301.134 64.8419 302.12 66.5453C302.832 67.8081 303.573 68.9429 304.35 69.8866L304.368 69.9093L304.387 69.9317C304.745 70.3535 305.128 70.768 305.528 71.1316C305.886 71.4574 306.461 71.9308 307.209 72.2584L307.249 72.2759L307.289 72.2925C308.404 72.7515 309.628 72.8125 310.5 72.8125C312.278 72.8125 314.141 72.4608 315.77 71.4079C316.949 70.6738 318.291 69.5226 318.923 67.7516C319.371 66.4982 319.469 65.0354 319.469 63.7188V62.6637C319.469 62.6723 319.47 62.6088 319.484 62.4386C319.499 62.2622 319.523 62.0237 319.559 61.7148C319.631 61.0972 319.742 60.2656 319.896 59.2079C320.203 57.0957 320.667 54.1651 321.29 50.4041C322.525 42.9505 323.777 36.9538 325.036 32.3721C325.663 30.2249 326.094 28.2005 326.094 26.5C326.094 24.5131 325.655 22.528 324.513 20.7927C323.44 19.1136 321.611 17.5312 318.969 17.5312C317.094 17.5312 315.369 18.1266 313.849 19.0768L313.833 19.0868L313.817 19.0971C311.241 20.741 310.484 23.5738 310.35 25.9293L310.35 25.9415C310.258 27.6527 309.995 29.6859 309.54 32.0595C308.948 35.1074 308.316 38.6866 307.646 42.7915C307.366 44.5055 307.093 46.1183 306.827 47.6304C305.48 45.6182 304.061 43.3923 302.571 40.9488C298.986 35.0679 296.988 30.7024 296.262 27.7126L296.258 27.6951L296.253 27.6776C295.931 26.4005 295.522 25.1762 294.968 24.1258C294.446 23.1368 293.564 21.8567 292.07 21.1098C290.91 20.5296 289.542 20.0625 288.062 20.0625C286.298 20.0625 284.612 20.5541 283.129 21.5653C281.983 22.3405 280.7 23.5327 280.129 25.3072L280.115 25.3509L280.102 25.3949C279.774 26.5032 279.658 28.0558 279.597 29.5922L279.596 29.6205L279.595 29.6488C279.522 32.5288 278.684 38.0062 276.932 46.3528C276.931 46.357 276.93 46.3612 276.929 46.3654" fill="url(#paint7_linear_374_22)"/>
<path fill-rule="evenodd" clip-rule="evenodd" d="M216.076 71.048C216.373 68.7626 216.671 67.007 216.969 65.7812C217.541 67.3931 218.711 68.3344 220.48 68.6054C220.837 68.6601 221.219 68.6875 221.625 68.6875C226.729 68.6875 231.885 65.9375 237.094 60.4375C242.323 54.9167 244.938 48.7917 244.938 42.0625C244.938 39.5417 244.115 37.4479 242.469 35.7812C240.844 34.1146 238.865 33.2812 236.531 33.2812C233.948 33.2812 231.021 34.5938 227.75 37.2188C226.504 38.2105 225.324 39.3005 224.208 40.4886C222.906 41.8746 221.693 43.3943 220.569 45.0475C220.567 45.05 220.565 45.0525 220.564 45.055C220.123 45.7036 219.695 46.3728 219.281 47.0625L219.594 44.9062C219.996 42.283 220.243 40.2503 220.335 38.8081C220.362 38.3834 220.375 38.0098 220.375 37.6875C220.375 34.2083 219.24 32.4688 216.969 32.4688C215.615 32.4688 214.562 32.8229 213.812 33.5312C213.083 34.2396 212.635 35.0625 212.469 36C212.323 36.9167 212.25 38.7708 212.25 41.5625V42.1875C211.958 55.5208 210.26 68.3854 207.156 80.7812C206.635 82.9896 206.375 84.9375 206.375 86.625C206.375 87.4792 206.792 88.25 207.625 88.9375C208.479 89.6458 209.375 90 210.312 90C211.354 90 212.229 89.6146 212.938 88.8438C213.667 88.0729 214.156 86.6875 214.406 84.6875L215.906 72.4062C215.963 71.9344 216.019 71.4817 216.076 71.048ZM219.916 72.5654C219.903 72.6697 219.891 72.7751 219.878 72.8817L219.877 72.8912L218.375 85.1836C218.102 87.3686 217.493 89.8329 215.865 91.5697C214.405 93.1477 212.471 94 210.312 94C208.28 94 206.509 93.2072 205.076 92.0197C203.588 90.7909 202.375 88.9766 202.375 86.625C202.375 84.5433 202.694 82.2764 203.263 79.863L203.269 79.8363L203.276 79.8096C206.301 67.729 207.962 55.1762 208.25 42.1437V41.5625C208.25 38.8251 208.315 36.6528 208.518 35.3715L208.524 35.3356L208.531 35.2999C208.854 33.4793 209.738 31.913 211.025 30.6621L211.046 30.6425L211.066 30.6232C212.767 29.0164 214.922 28.4688 216.969 28.4688C219.306 28.4688 221.489 29.4662 222.873 31.5871C223.553 32.6296 223.947 33.8038 224.159 35.0007C224.518 34.6909 224.883 34.3884 225.254 34.0932C228.822 31.2313 232.625 29.2812 236.531 29.2812C239.936 29.2812 242.945 30.5447 245.324 32.9795C247.763 35.4541 248.938 38.5821 248.938 42.0625C248.938 49.9502 245.832 57.0286 239.998 63.1879M219.916 72.5654C220.486 72.6504 221.059 72.6875 221.625 72.6875C228.266 72.6875 234.4 69.099 239.998 63.1879M225.406 47.8125C229.469 42.8542 232.771 40.375 235.312 40.375C235.771 40.375 236.198 40.6667 236.594 41.25C236.99 41.8125 237.188 42.7396 237.188 44.0312C237.188 47.9062 235.469 51.9271 232.031 56.0938C228.615 60.2396 225.583 62.3125 222.938 62.3125C221.979 62.3125 221.135 62.0312 220.406 61.4688C219.698 60.8854 219.344 60.2292 219.344 59.5C219.344 56.6667 221.365 52.7708 225.406 47.8125ZM228.503 50.3437C226.587 52.6958 225.251 54.674 224.41 56.2949C224.019 57.0482 223.764 57.6705 223.601 58.1741C223.934 58.0555 224.375 57.8404 224.937 57.456C226.035 56.7054 227.376 55.4536 228.944 53.5498L228.946 53.5482C231.415 50.5548 232.653 47.9356 233.046 45.6537C231.803 46.6384 230.289 48.1645 228.503 50.3437Z" fill="url(#paint8_linear_374_22)"/>
<path fill-rule="evenodd" clip-rule="evenodd" d="M195.219 64.5C199.135 61.1458 201.792 57.0312 203.188 52.1562V52.125C203.542 50.6042 203.719 49.0521 203.719 47.4688C203.719 43.8229 202.615 40.6875 200.406 38.0625C198.198 35.4167 195.312 34.0938 191.75 34.0938C186.521 34.0938 182.073 36.6979 178.406 41.9062C174.74 47.1146 172.906 52.4062 172.906 57.7812C172.906 61.0729 173.906 63.8542 175.906 66.125C177.906 68.375 180.448 69.5 183.531 69.5C187.427 69.5 191.323 67.8333 195.219 64.5ZM194.906 42.7812C194.01 41.3854 192.75 40.6875 191.125 40.6875C189.583 40.6875 188.198 41.2188 186.969 42.2812H186.938C185.479 43.5729 184.052 45.6354 182.656 48.4688C181.26 51.3021 180.562 54.1458 180.562 57C180.562 58.7292 180.875 60.1562 181.5 61.2812C182.146 62.4062 182.99 62.9688 184.031 62.9688C186.615 62.9688 189.302 61.4375 192.094 58.375C194.885 55.3125 196.281 51.875 196.281 48.0625C196.281 45.9167 195.823 44.1562 194.906 42.7812ZM184.796 58.8593C185.785 58.5936 187.228 57.7751 189.138 55.6803C191.321 53.2849 192.281 50.7877 192.281 48.0625C192.281 46.4732 191.943 45.5476 191.578 45L191.559 44.9711L191.54 44.9417C191.465 44.8243 191.408 44.7625 191.379 44.7349C191.366 44.7217 191.357 44.7144 191.352 44.7111C191.349 44.71 191.344 44.7083 191.335 44.7062C191.31 44.7001 191.244 44.6875 191.125 44.6875C190.599 44.6875 190.13 44.8362 189.585 45.3074L189.274 45.5762C188.424 46.4378 187.39 47.912 186.244 50.2365C185.09 52.5793 184.562 54.8218 184.562 57C184.562 57.8523 184.667 58.4493 184.796 58.8593ZM203.474 35.4955C200.477 31.9069 196.451 30.0938 191.75 30.0938C184.928 30.0938 179.366 33.5938 175.135 39.6036C171.084 45.3582 168.906 51.4383 168.906 57.7812C168.906 61.9539 170.203 65.701 172.904 68.7688L172.911 68.7756L172.917 68.7825C175.696 71.9098 179.337 73.5 183.531 73.5C188.647 73.5 193.431 71.2938 197.819 67.5393L197.821 67.5382C202.322 63.6833 205.418 58.8993 207.033 53.2573L207.188 52.7176V52.5637C207.542 50.8919 207.719 49.192 207.719 47.4688C207.719 42.9483 206.324 38.8873 203.474 35.4955Z" fill="url(#paint9_linear_374_22)"/>
<path fill-rule="evenodd" clip-rule="evenodd" d="M173.702 23.371L173.7 23.3781C173.372 24.7354 172.501 28.015 171.11 33.1409L171.108 33.1499C170.146 36.6652 169.399 40.5433 168.877 44.7935C168.364 49.1287 168.125 52.3813 168.125 54.625C168.125 57.0836 168.31 60.078 168.695 63.6308L168.696 63.6394C168.792 64.5417 168.875 65.3965 168.875 65.9062C168.875 68.2634 167.961 70.3588 166.296 71.9857C164.778 73.4687 162.817 74.4688 160.5 74.4688C159.113 74.4688 157.674 74.1332 156.383 73.2684C155.1 72.4087 154.246 71.2152 153.704 69.9639C152.745 67.7478 152.469 64.6194 152.469 61.1875C152.469 53.5807 153.356 44.7286 155.089 34.6647L155.091 34.6566C155.962 29.6624 156.762 25.6263 157.493 22.5813C158.175 19.7423 158.914 17.2221 159.827 15.7116L159.836 15.6971L159.845 15.6827C161.234 13.4278 163.51 11.0938 166.906 11.0938C168.743 11.0938 170.829 11.6119 172.388 13.315C173.886 14.951 174.281 17.0189 174.281 18.7812C174.281 20.2728 174.075 21.806 173.704 23.364L173.702 23.371ZM164.906 44.3125C165.448 39.8958 166.229 35.8229 167.25 32.0938C168.646 26.9479 169.5 23.7292 169.812 22.4375C170.125 21.125 170.281 19.9062 170.281 18.7812C170.281 16.3229 169.156 15.0938 166.906 15.0938C165.573 15.0938 164.354 15.9896 163.25 17.7812C162.167 19.5729 160.76 25.4271 159.031 35.3438C157.323 45.2604 156.469 53.875 156.469 61.1875C156.469 64.5833 156.771 66.9792 157.375 68.375C157.979 69.7708 159.021 70.4688 160.5 70.4688C161.583 70.4688 162.583 70.0208 163.5 69.125C164.417 68.2292 164.875 67.1562 164.875 65.9062C164.875 65.6562 164.823 65.0417 164.719 64.0625C164.323 60.4167 164.125 57.2708 164.125 54.625C164.125 52.1458 164.385 48.7083 164.906 44.3125Z" fill="url(#paint10_linear_374_22)"/>
<path fill-rule="evenodd" clip-rule="evenodd" d="M144.781 65.0312C148.427 62.0104 150.25 59.4167 150.25 57.25C150.25 55.8542 149.625 55.1562 148.375 55.1562C147.625 55.1562 146.854 55.5729 146.062 56.4062C141.938 60.7188 137.781 62.875 133.594 62.875C132.115 62.875 130.927 62.4271 130.031 61.5312C129.156 60.6146 128.719 59.6562 128.719 58.6562C128.719 58.0521 129.031 57.6771 129.656 57.5312C135.094 56.2812 139.552 54.0208 143.031 50.75C146.51 47.4583 148.25 44 148.25 40.375C148.25 38.3333 147.542 36.5729 146.125 35.0938C144.708 33.6146 142.833 32.875 140.5 32.875C135.812 32.875 131.406 35.4271 127.281 40.5312C123.156 45.6354 121.094 51.1042 121.094 56.9375C121.094 60.8958 122.104 63.9896 124.125 66.2188C126.146 68.4271 128.917 69.5312 132.438 69.5312C137.021 69.5312 141.135 68.0312 144.781 65.0312ZM141.156 39.9375C140.781 39.4583 140.292 39.2188 139.688 39.2188C137.875 39.2188 135.865 40.5521 133.656 43.2188C132.628 44.4601 131.763 45.7375 131.06 47.0511C130.253 48.5594 129.66 50.1152 129.281 51.7188C130.962 51.3783 132.54 50.8449 134.015 50.1186C135.428 49.4228 136.746 48.5499 137.969 47.5C140.49 45.3542 141.75 43.4062 141.75 41.6562C141.75 40.9688 141.552 40.3958 141.156 39.9375ZM148.108 51.162C150.72 47.9563 152.25 44.3535 152.25 40.375C152.25 37.2987 151.141 34.5481 149.014 32.327C146.735 29.9475 143.758 28.875 140.5 28.875C134.174 28.875 128.735 32.3683 124.17 38.017C119.546 43.7387 117.094 50.0749 117.094 56.9375C117.094 61.5684 118.286 65.7331 121.161 68.9053L121.168 68.9122L121.174 68.9191C124.087 72.1025 128.01 73.5312 132.438 73.5312C137.978 73.5312 142.984 71.6898 147.323 68.12L147.333 68.1113C149.309 66.474 150.966 64.8132 152.155 63.1203C153.331 61.4471 154.25 59.4575 154.25 57.25C154.25 56.0377 153.988 54.3815 152.761 53.0112C151.459 51.5569 149.738 51.1562 148.375 51.1562C148.285 51.1562 148.196 51.1582 148.108 51.162Z" fill="url(#paint11_linear_374_22)"/>
<path fill-rule="evenodd" clip-rule="evenodd" d="M90.75 58.8125C92.4167 63.3542 93.2396 66.3125 93.2188 67.6875C94.6146 69.4583 95.9688 70.3438 97.2812 70.3438C98.8021 70.3438 100.521 68.5417 102.438 64.9375C105.833 58.625 109 53.3854 111.938 49.2188C114.896 45.0521 117.229 42.3854 118.938 41.2188C120.688 40.0521 121.562 38.8646 121.562 37.6562C121.562 36.6354 121.208 35.7708 120.5 35.0625C119.812 34.3542 118.927 34 117.844 34C116.802 34 115.812 34.2708 114.875 34.8125C113.938 35.3542 112.51 36.8438 110.594 39.2812C108.698 41.7188 106.49 44.9896 103.969 49.0938C102.642 51.2427 101.604 52.9473 100.854 54.2077C100.202 55.3038 99.7686 56.0639 99.5531 56.4879C99.5455 56.5028 99.5383 56.5172 99.5312 56.5312C99.5286 56.5364 99.5259 56.5415 99.5233 56.5466C98.7781 57.9745 98.3433 58.7819 98.2188 58.9688C98.0312 58.6146 97.8125 57.9896 97.5625 57.0938C97.3587 56.4243 97.1686 55.8136 96.9919 55.2616C96.9848 55.2394 96.9777 55.2173 96.9707 55.1953C96.7978 54.6564 96.6381 54.1745 96.4915 53.7496C96.4733 53.6967 96.4553 53.6448 96.4375 53.5938C95.8958 52.1146 95.3438 50.2708 94.7812 48.0625C94.2396 45.8333 93.9167 44.3021 93.8125 43.4688C93.7292 42.6146 93.6875 41.1875 93.6875 39.1875C93.6875 36.0625 92.375 34.5 89.75 34.5C87.0625 34.5 85.7188 36.2083 85.7188 39.625C85.7188 43.4375 87.3958 49.8333 90.75 58.8125ZM86.9988 60.2012C87.8115 62.4164 88.3928 64.1768 88.7635 65.5095C88.9489 66.1761 89.0706 66.6965 89.143 67.0874C89.2067 67.4315 89.2169 67.5954 89.2187 67.6254C89.2191 67.6314 89.2191 67.632 89.2192 67.6277L89.1977 69.0477L90.0773 70.1637C91.7039 72.2273 94.0892 74.3438 97.2812 74.3438C99.6606 74.3438 101.453 72.9612 102.605 71.7529C103.823 70.4761 104.931 68.7673 105.965 66.824C109.309 60.608 112.389 55.5212 115.203 51.5294C118.159 47.3662 120.126 45.258 121.179 44.5317C123.219 43.1666 125.562 40.9392 125.562 37.6562C125.562 35.6069 124.81 33.7261 123.349 32.2548C121.834 30.7058 119.883 30 117.844 30C116.071 30 114.395 30.4703 112.874 31.349C111.903 31.9098 110.997 32.7504 110.213 33.5688C109.377 34.4416 108.453 35.533 107.449 36.8088L107.443 36.8171L107.436 36.8255C105.415 39.4238 103.122 42.8304 100.562 46.9978C100.082 47.7752 99.6349 48.5021 99.2222 49.1767C99.0394 48.5346 98.8529 47.8417 98.6629 47.0965C98.1353 44.9236 97.8689 43.6222 97.7883 43.0242C97.7285 42.3661 97.6875 41.1257 97.6875 39.1875C97.6875 37.162 97.2767 34.8976 95.7659 33.0991C94.143 31.167 91.8798 30.5 89.75 30.5C87.4997 30.5 85.191 31.2635 83.5826 33.3083C82.1181 35.1701 81.7188 37.501 81.7188 39.625C81.7188 44.2437 83.6588 51.2584 86.9988 60.2012Z" fill="url(#paint12_linear_374_22)"/>
<path fill-rule="evenodd" clip-rule="evenodd" d="M76.7812 65.0312C80.4271 62.0104 82.25 59.4167 82.25 57.25C82.25 55.8542 81.625 55.1562 80.375 55.1562C79.625 55.1562 78.8542 55.5729 78.0625 56.4062C73.9375 60.7188 69.7812 62.875 65.5938 62.875C64.1146 62.875 62.9271 62.4271 62.0312 61.5312C61.1562 60.6146 60.7188 59.6562 60.7188 58.6562C60.7188 58.0521 61.0312 57.6771 61.6562 57.5312C67.0938 56.2812 71.5521 54.0208 75.0312 50.75C78.5104 47.4583 80.25 44 80.25 40.375C80.25 38.3333 79.5417 36.5729 78.125 35.0938C76.7083 33.6146 74.8333 32.875 72.5 32.875C67.8125 32.875 63.4062 35.4271 59.2812 40.5312C55.1562 45.6354 53.0938 51.1042 53.0938 56.9375C53.0938 60.8958 54.1042 63.9896 56.125 66.2188C58.1458 68.4271 60.9167 69.5312 64.4375 69.5312C69.0208 69.5312 73.1354 68.0312 76.7812 65.0312ZM73.1562 39.9375C72.7812 39.4583 72.2917 39.2188 71.6875 39.2188C69.875 39.2188 67.8646 40.5521 65.6562 43.2188C64.6283 44.4601 63.7628 45.7375 63.0599 47.0511C62.2527 48.5594 61.6599 50.1152 61.2812 51.7188C62.9623 51.3783 64.5402 50.8449 66.0148 50.1186C67.4275 49.4228 68.7455 48.5499 69.9688 47.5C72.4896 45.3542 73.75 43.4062 73.75 41.6562C73.75 40.9688 73.5521 40.3958 73.1562 39.9375ZM71.7132 43.2175C71.7132 43.2176 71.7121 43.2177 71.7098 43.2179C71.712 43.2176 71.7131 43.2175 71.7132 43.2175ZM69.7511 41.6283C69.7513 41.6263 69.7515 41.6252 69.7515 41.6252ZM80.1079 51.162C80.1961 51.1582 80.2851 51.1562 80.375 51.1562C81.7377 51.1562 83.4587 51.5569 84.7611 53.0112C85.9882 54.3815 86.25 56.0377 86.25 57.25C86.25 59.4575 85.3314 61.4471 84.1554 63.1203C82.9656 64.8132 81.3094 66.474 79.3333 68.1113L79.3229 68.12C74.9845 71.6898 69.978 73.5312 64.4375 73.5312C60.0103 73.5312 56.0872 72.1025 53.1741 68.9191L53.1678 68.9122L53.1615 68.9053C50.2858 65.7331 49.0938 61.5684 49.0938 56.9375C49.0938 50.0749 51.5461 43.7387 56.1702 38.017C60.7353 32.3683 66.1744 28.875 72.5 28.875C75.7578 28.875 78.7348 29.9475 81.0138 32.327C83.1411 34.5481 84.25 37.2987 84.25 40.375C84.25 44.3535 82.7205 47.9563 80.1079 51.162Z" fill="url(#paint13_linear_374_22)"/>
<path fill-rule="evenodd" clip-rule="evenodd" d="M6.53125 57.4688C6.40625 60.1146 6.22917 61.9479 6 62.9688L5.28125 64.8438C4.84375 65.6771 4.625 66.3125 4.625 66.75C4.625 67.3958 5.04167 68.2292 5.875 69.25C6.70833 70.2708 7.65625 70.7812 8.71875 70.7812C10.0938 70.7812 11.4896 70.2917 12.9062 69.3125C14.0521 68.5833 15.0521 68.0521 15.9062 67.7188C16.7604 67.3854 18.2292 66.9896 20.3125 66.5312C28.1875 64.7604 34.8958 61.4583 40.4375 56.625C45.9792 51.7708 48.75 46.3438 48.75 40.3438C48.75 34.9688 46.9479 30.6562 43.3438 27.4062C39.7604 24.1354 35.0625 22.5 29.25 22.5C27.4583 22.5 25.1354 22.625 22.2812 22.875C18.9271 23.1458 16.2917 23.2812 14.375 23.2812L10.1562 23.1562C9.13542 23.1562 8.16667 23.6042 7.25 24.5C6.35417 25.375 5.90625 26.3125 5.90625 27.3125C5.90625 28.6875 7.01042 29.6562 9.21875 30.2188C9.55208 30.3021 9.71875 30.5312 9.71875 30.9062C9.71875 31.7812 9.55208 33.0521 9.21875 34.7188C7.90625 42.6354 7.01042 50.2188 6.53125 57.4688ZM37.5938 31.875C35.1979 29.8333 32.0521 28.8125 28.1562 28.8125C25.4896 28.8125 22.2812 29.0625 18.5312 29.5625C18.0521 29.625 17.6667 29.6667 17.375 29.6875C15.1042 43.6042 13.9688 53.4271 13.9688 59.1562C13.9688 60.2188 14.0312 60.9688 14.1562 61.4062C15.2604 61.4062 18.4167 60.6042 23.625 59C28.8542 57.375 33.0938 54.8854 36.3438 51.5312C39.5938 48.1771 41.2188 44.3542 41.2188 40.0625C41.2188 36.625 40.0104 33.8958 37.5938 31.875ZM22.4429 55.1786C27.1406 53.7181 30.7628 51.5429 33.4711 48.7478C36.068 46.0676 37.2188 43.2187 37.2188 40.0625C37.2188 37.6872 36.4456 36.1291 35.0278 34.9435L35.0135 34.9316L34.9993 34.9195C33.4873 33.631 31.3351 32.8125 28.1562 32.8125C26.132 32.8125 23.701 32.9712 20.8453 33.304C19.2117 43.6423 18.2938 51.3322 18.0411 56.4797C19.2671 56.1381 20.7321 55.7055 22.4429 55.1786ZM4.45504 21.6385C5.91822 20.2089 7.8403 19.1562 10.1562 19.1562H10.2155L14.4327 19.2812C16.1858 19.2785 18.6748 19.153 21.9461 18.889C24.8505 18.6349 27.2973 18.5 29.25 18.5C35.8472 18.5 41.5716 20.3773 46.0315 24.4438C50.5665 28.5378 52.75 33.9762 52.75 40.3438C52.75 47.7539 49.2674 54.2081 43.0731 59.6339L43.0667 59.6395C36.9763 64.9515 29.6489 68.5317 21.1901 70.4338L21.181 70.4358L21.1719 70.4378C19.0966 70.8944 17.8974 71.2355 17.3604 71.4451C16.8435 71.6468 16.1027 72.0232 15.1109 72.6509C13.2123 73.9475 11.0619 74.7812 8.71875 74.7812C6.17097 74.7812 4.16943 73.486 2.77636 71.7795C1.86732 70.6659 0.625 68.8862 0.625 66.75C0.625 65.3798 1.17337 64.0959 1.62543 63.2055L2.14548 61.8488C2.27765 61.105 2.42389 59.6469 2.53571 57.28L2.53748 57.2425L2.53996 57.205C3.02861 49.8115 3.94086 42.0973 5.27261 34.0645L5.28344 33.9992L5.29643 33.9343C5.36168 33.608 5.41788 33.3085 5.466 33.0343C4.98479 32.7667 4.52265 32.4511 4.09634 32.0771C2.74551 30.8919 1.90625 29.2377 1.90625 27.3125C1.90625 24.9783 2.99419 23.0657 4.45427 21.6393" fill="url(#paint14_linear_374_22)"/>
<defs>
<linearGradient id="paint0_linear_374_22" x1="103.5" y1="21" x2="154.697" y2="209.377" gradientUnits="userSpaceOnUse">
<stop stop-color="#6AB8F5"/>
<stop offset="0.405403" stop-color="#BC96E1"/>
<stop offset="1" stop-color="#1216AB"/>
</linearGradient>
<linearGradient id="paint1_linear_374_22" x1="103.5" y1="21" x2="154.697" y2="209.377" gradientUnits="userSpaceOnUse">
<stop stop-color="#6AB8F5"/>
<stop offset="0.405403" stop-color="#BC96E1"/>
<stop offset="1" stop-color="#1216AB"/>
</linearGradient>
<linearGradient id="paint2_linear_374_22" x1="103.5" y1="21" x2="154.697" y2="209.377" gradientUnits="userSpaceOnUse">
<stop stop-color="#6AB8F5"/>
<stop offset="0.405403" stop-color="#BC96E1"/>
<stop offset="1" stop-color="#1216AB"/>
</linearGradient>
<linearGradient id="paint3_linear_374_22" x1="103.5" y1="21" x2="154.697" y2="209.377" gradientUnits="userSpaceOnUse">
<stop stop-color="#6AB8F5"/>
<stop offset="0.405403" stop-color="#BC96E1"/>
<stop offset="1" stop-color="#1216AB"/>
</linearGradient>
<linearGradient id="paint4_linear_374_22" x1="103.5" y1="21" x2="154.697" y2="209.377" gradientUnits="userSpaceOnUse">
<stop stop-color="#6AB8F5"/>
<stop offset="0.405403" stop-color="#BC96E1"/>
<stop offset="1" stop-color="#1216AB"/>
</linearGradient>
<linearGradient id="paint5_linear_374_22" x1="103.5" y1="21" x2="154.697" y2="209.377" gradientUnits="userSpaceOnUse">
<stop stop-color="#6AB8F5"/>
<stop offset="0.405403" stop-color="#BC96E1"/>
<stop offset="1" stop-color="#1216AB"/>
</linearGradient>
<linearGradient id="paint6_linear_374_22" x1="103.5" y1="21" x2="154.697" y2="209.377" gradientUnits="userSpaceOnUse">
<stop stop-color="#6AB8F5"/>
<stop offset="0.405403" stop-color="#BC96E1"/>
<stop offset="1" stop-color="#1216AB"/>
</linearGradient>
<linearGradient id="paint7_linear_374_22" x1="103.5" y1="21" x2="154.697" y2="209.377" gradientUnits="userSpaceOnUse">
<stop stop-color="#6AB8F5"/>
<stop offset="0.405403" stop-color="#BC96E1"/>
<stop offset="1" stop-color="#1216AB"/>
</linearGradient>
<linearGradient id="paint8_linear_374_22" x1="103.5" y1="21" x2="154.697" y2="209.377" gradientUnits="userSpaceOnUse">
<stop stop-color="#6AB8F5"/>
<stop offset="0.405403" stop-color="#BC96E1"/>
<stop offset="1" stop-color="#1216AB"/>
</linearGradient>
<linearGradient id="paint9_linear_374_22" x1="103.5" y1="21" x2="154.697" y2="209.377" gradientUnits="userSpaceOnUse">
<stop stop-color="#6AB8F5"/>
<stop offset="0.405403" stop-color="#BC96E1"/>
<stop offset="1" stop-color="#1216AB"/>
</linearGradient>
<linearGradient id="paint10_linear_374_22" x1="103.5" y1="21" x2="154.697" y2="209.377" gradientUnits="userSpaceOnUse">
<stop stop-color="#6AB8F5"/>
<stop offset="0.405403" stop-color="#BC96E1"/>
<stop offset="1" stop-color="#1216AB"/>
</linearGradient>
<linearGradient id="paint11_linear_374_22" x1="103.5" y1="21" x2="154.697" y2="209.377" gradientUnits="userSpaceOnUse">
<stop stop-color="#6AB8F5"/>
<stop offset="0.405403" stop-color="#BC96E1"/>
<stop offset="1" stop-color="#1216AB"/>
</linearGradient>
<linearGradient id="paint12_linear_374_22" x1="103.5" y1="21" x2="154.697" y2="209.377" gradientUnits="userSpaceOnUse">
<stop stop-color="#6AB8F5"/>
<stop offset="0.405403" stop-color="#BC96E1"/>
<stop offset="1" stop-color="#1216AB"/>
</linearGradient>
<linearGradient id="paint13_linear_374_22" x1="103.5" y1="21" x2="154.697" y2="209.377" gradientUnits="userSpaceOnUse">
<stop stop-color="#6AB8F5"/>
<stop offset="0.405403" stop-color="#BC96E1"/>
<stop offset="1" stop-color="#1216AB"/>
</linearGradient>
<linearGradient id="paint14_linear_374_22" x1="103.5" y1="21" x2="154.697" y2="209.377" gradientUnits="userSpaceOnUse">
<stop stop-color="#6AB8F5"/>
<stop offset="0.405403" stop-color="#BC96E1"/>
<stop offset="1" stop-color="#1216AB"/>
</linearGradient>
</defs>
</svg>
